<?xml version="1.0" encoding="utf-8"?>
<!-- Generator: Adobe Illustrator 26.2.1, SVG Export Plug-In . SVG Version: 6.00 Build 0)  -->
<svg version="1.1" xmlns="http://www.w3.org/2000/svg" xmlns:xlink="http://www.w3.org/1999/xlink" x="0px" y="0px"
	 viewBox="0 0 305.56 305.56"  xml:space="preserve">
<style type="text/css">
	.circuloaceptadost0{fill:#ADADAD;}
	.circuloaceptadost1{fill:#E70016;}
</style>
<g>
	<path class="circuloaceptadost1" d="M139.38,194.97c-4.8,0-9.43-1.78-12.9-4.96l-36.65-33.66c-7.42-6.81-7.66-18.09-0.54-25.18
		c7.13-7.1,18.92-7.33,26.33-0.52l23.15,21.26l50.56-50.87c7.08-7.14,18.86-7.43,26.33-0.63c7.45,6.78,7.74,18.05,0.66,25.18
		l-63.45,63.84c-3.42,3.44-8.12,5.42-13.08,5.54C139.66,194.97,139.51,194.97,139.38,194.97z"/>
	<path class="circuloaceptadost0" d="M152.78,305.56C68.54,305.56,0,237.02,0,152.78S68.54,0,152.78,0s152.78,68.54,152.78,152.78
		S237.02,305.56,152.78,305.56z M152.78,15.4C77.03,15.4,15.4,77.03,15.4,152.78s61.63,137.38,137.37,137.38
		s137.37-61.63,137.37-137.38S228.53,15.4,152.78,15.4z"/>
</g>
</svg>
