<?xml version="1.0" encoding="utf-8"?>
<!-- Generator: Adobe Illustrator 25.3.1, SVG Export Plug-In . SVG Version: 6.00 Build 0)  -->
<svg version="1.1" id="Capa_1" xmlns="http://www.w3.org/2000/svg" xmlns:xlink="http://www.w3.org/1999/xlink" x="0px" y="0px"
	 viewBox="0 0 47.04 17.58" style="enable-background:new 0 0 47.04 17.58;" xml:space="preserve">
<g>
	<path d="M0,5.95c0.06-0.12,0.12-0.24,0.17-0.36c0.32-0.72,0.87-1.18,1.66-1.3c1.06-0.16,2.12-0.28,3.18-0.43
		c1.1-0.16,2.13-0.53,3.12-1.03c1.06-0.54,2.14-1.06,3.2-1.6c1.61-0.82,3.32-1.22,5.13-1.23c2.13-0.01,4.26-0.01,6.38,0
		c2.09,0.01,4.01,0.57,5.77,1.71c1.67,1.08,3.36,2.13,5.03,3.21c0.27,0.17,0.54,0.26,0.86,0.27c2.51,0.07,5.01,0.33,7.45,0.96
		c0.94,0.24,1.88,0.56,2.78,0.93C46.25,7.7,47,8.9,47.03,10.55c0.01,0.81,0.01,1.62,0,2.43c0,0.51-0.13,1-0.41,1.44
		c-0.37,0.58-0.91,0.89-1.59,0.96c-0.45,0.04-0.79-0.21-0.84-0.6c-0.05-0.38,0.19-0.67,0.63-0.76c0.53-0.11,0.79-0.31,0.81-0.84
		c0.04-0.96,0.01-1.92,0.01-2.94c-0.37,0-0.72,0-1.07,0c-0.2,0-0.4,0-0.59-0.04c-0.34-0.07-0.55-0.37-0.53-0.7
		c0.02-0.32,0.25-0.58,0.58-0.61c0.27-0.03,0.54-0.01,0.92-0.01c-0.23-0.31-0.48-0.41-0.71-0.52c-1.04-0.46-2.12-0.78-3.23-1.02
		c-2.51-0.55-5.05-0.78-7.61-0.79c-5.11-0.01-10.23,0-15.34,0c-0.18,0-0.37,0-0.55-0.02c-0.33-0.05-0.55-0.31-0.57-0.63
		c-0.02-0.33,0.2-0.63,0.54-0.69c0.16-0.03,0.33-0.03,0.5-0.03c0.61,0,1.22,0,1.86,0c0-1.28,0-2.5,0-3.73
		c-0.07-0.02-0.11-0.05-0.16-0.04c-1.48,0.02-2.97,0.03-4.45,0.08c-0.45,0.02-0.9,0.16-1.35,0.26c-0.1,0.02-0.24,0.12-0.26,0.21
		c-0.25,1.04-0.48,2.08-0.72,3.18c0.23,0.01,0.43,0.03,0.62,0.03c0.4,0.01,0.8-0.01,1.19,0.02c0.41,0.03,0.65,0.32,0.63,0.7
		c-0.01,0.36-0.25,0.64-0.64,0.64c-0.73,0.01-1.47,0.03-2.2-0.06c-0.84-0.1-1.57-0.49-2.19-1.07C9.84,4.94,9.38,4.48,8.9,4.01
		c-0.1,0.04-0.18,0.07-0.26,0.11C7.18,4.87,5.61,5.24,3.98,5.4C3.4,5.46,2.83,5.53,2.25,5.61c-0.66,0.09-0.87,0.34-0.87,1
		c0,0.23,0,0.46,0,0.71c0.14,0.01,0.26,0.03,0.37,0.04c0.15,0.01,0.31,0,0.46,0.02c0.4,0.05,0.65,0.34,0.63,0.71
		C2.83,8.45,2.57,8.71,2.19,8.74c-0.26,0.02-0.51,0-0.8,0c0,0.8-0.05,1.55,0.01,2.29c0.05,0.63,0.47,1.06,1.08,1.24
		c0.86,0.26,1.73,0.5,2.65,0.76c0.16-1.51,0.81-2.72,2.11-3.53c0.91-0.57,1.9-0.75,2.95-0.59c1.21,0.18,2.17,0.79,2.89,1.78
		c0.71,0.98,0.9,2.09,0.77,3.29c6.7,0,13.35,0,20.04,0c0-0.2,0-0.39,0-0.58c-0.06-2.19,1.35-3.99,3.48-4.45
		c2.36-0.52,4.75,1.13,5.19,3.51c0.43,2.36-1.26,5.06-4.25,5.13c-1.49,0.03-2.69-0.61-3.59-1.8c-0.09-0.12-0.18-0.25-0.28-0.4
		c-0.16,0-0.32,0-0.49,0c-6.71,0-13.41,0-20.12-0.01c-0.33,0-0.54,0.08-0.75,0.37c-0.95,1.31-2.26,1.95-3.88,1.82
		c-1.71-0.14-2.93-1.05-3.66-2.6c-0.03-0.07-0.06-0.14-0.09-0.21c-0.02-0.06-0.04-0.11-0.08-0.21c-0.67-0.19-1.35-0.39-2.04-0.59
		c-0.4-0.11-0.79-0.22-1.19-0.35c-1.07-0.33-1.74-1.04-2.03-2.11C0.06,11.42,0.03,11.35,0,11.28C0,9.5,0,7.73,0,5.95z M21.29,5.11
		c0.55,0.1,9.67,0.07,10.01-0.03c-0.09-0.06-0.16-0.11-0.23-0.16c-1.11-0.71-2.22-1.41-3.33-2.12c-1.37-0.87-2.87-1.34-4.5-1.4
		c-0.64-0.02-1.28,0-1.95,0C21.29,2.66,21.29,3.89,21.29,5.11z M12.51,13.2c-0.01-1.65-1.33-2.96-2.98-2.97c-1.66,0-3.01,1.35-3,3
		c0.01,1.63,1.36,2.98,2.99,2.98C11.17,16.22,12.51,14.86,12.51,13.2z M35.26,13.24c0.01,1.64,1.35,2.98,2.98,2.98
		c1.64,0,3.01-1.37,3-3.02c-0.01-1.64-1.35-2.96-2.99-2.96C36.58,10.23,35.25,11.56,35.26,13.24z M12.11,2.39
		c-0.69,0.35-1.28,0.64-1.86,0.93c0.36,0.5,1,1.09,1.37,1.26C11.77,3.89,11.93,3.2,12.11,2.39z"/>
	<path d="M23.91,11.06c2.43,0,4.87,0,7.3,0c0.17,0,0.34,0,0.5,0.02c0.35,0.05,0.59,0.32,0.59,0.65c0.01,0.33-0.23,0.61-0.57,0.68
		c-0.13,0.03-0.27,0.02-0.41,0.02c-4.96,0-9.92,0-14.88,0c-0.14,0-0.28,0-0.41-0.02c-0.34-0.06-0.58-0.35-0.57-0.68
		c0.01-0.33,0.25-0.61,0.59-0.65c0.17-0.02,0.34-0.02,0.5-0.02C19.01,11.06,21.46,11.06,23.91,11.06z"/>
	<path d="M9.99,12.01c0.33,0.02,0.53,0.14,0.66,0.37c0.13,0.24,0.13,0.5-0.04,0.69c-0.39,0.43-0.8,0.84-1.23,1.23
		c-0.25,0.22-0.65,0.15-0.87-0.09c-0.22-0.24-0.26-0.63-0.04-0.88c0.37-0.41,0.76-0.79,1.17-1.16C9.74,12.07,9.91,12.04,9.99,12.01z
		"/>
	<path d="M37.81,12c0.09,0.05,0.28,0.12,0.42,0.25c0.34,0.31,0.66,0.64,0.97,0.97c0.29,0.31,0.31,0.72,0.05,0.99
		c-0.27,0.29-0.69,0.29-1.02-0.02c-0.34-0.32-0.68-0.66-1-1.01c-0.2-0.21-0.27-0.47-0.14-0.76C37.22,12.16,37.43,12.03,37.81,12z"/>
</g>
</svg>
