<?xml version="1.0" encoding="utf-8"?>
<!-- Generator: Adobe Illustrator 26.2.1, SVG Export Plug-In . SVG Version: 6.00 Build 0)  -->
<svg version="1.1" id="Capa_1" xmlns="http://www.w3.org/2000/svg" xmlns:xlink="http://www.w3.org/1999/xlink" x="0px" y="0px"
	 viewBox="0 0 380.67 192.23" style="enable-background:new 0 0 380.67 192.23;" xml:space="preserve">
<g>
	<path d="M207.34,147.32V97.62c0-8.85-7.2-16.05-16.05-16.05h-19.57c-8.85,0-16.05,7.2-16.05,16.05v49.71h-15.2v12.76h15.2h51.67
		h10.63v-12.76H207.34z M168.43,147.32V97.62c0-1.82,1.48-3.29,3.29-3.29h19.57c1.82,0,3.29,1.48,3.29,3.29v49.71H168.43z"/>
	<path d="M90.27,192.23c-19.63,0-35.6-15.97-35.6-35.6c0-19.63,15.97-35.6,35.6-35.6c19.63,0,35.6,15.97,35.6,35.6
		C125.87,176.26,109.9,192.23,90.27,192.23z M90.27,133.79c-12.59,0-22.84,10.25-22.84,22.84s10.25,22.84,22.84,22.84
		s22.84-10.25,22.84-22.84S102.86,133.79,90.27,133.79z"/>
	<path d="M267.82,192.23c-19.63,0-35.6-15.97-35.6-35.6c0-19.63,15.97-35.6,35.6-35.6c19.63,0,35.6,15.97,35.6,35.6
		C303.41,176.26,287.45,192.23,267.82,192.23z M267.82,133.79c-12.59,0-22.84,10.25-22.84,22.84s10.25,22.84,22.84,22.84
		s22.84-10.25,22.84-22.84S280.41,133.79,267.82,133.79z"/>
	<path d="M380.52,138.47l-10.03-69.18l-0.02-0.1C364.62,32.98,336.03,0,310.48,0H22.95C10.29,0,0,10.29,0,22.95v117.12
		c0,12.65,10.29,22.95,22.95,22.95h17.34v-12.76H22.95c-5.62,0-10.19-4.57-10.19-10.19V22.95c0-5.62,4.57-10.19,10.19-10.19h2.37
		v48.31h239.93c11.11,0,21.64,5.36,28.18,14.34l1.02,1.41c7.8,10.71,18.42,18.98,30.71,23.91l3.12,1.25v7.33
		c0,14.9,12.12,27.02,27.02,27.02h12l0.57,3.96c0.02,0.14,0.02,0.21,0.02,0.21c-0.23,5.47-4.7,9.76-10.18,9.76h-40.9v12.76h40.9
		c12.35,0,22.42-9.66,22.93-22C380.7,140.21,380.65,139.38,380.52,138.47z M137.16,12.76h37.45v35.56h-37.45V12.76z M124.4,48.31
		H86.96V12.76h37.45V48.31z M187.36,12.76h37.45v35.56h-37.45V12.76z M38.08,12.76H74.2v35.56H38.08V12.76z M304.76,69.3l-1.02-1.41
		c-8.93-12.26-23.32-19.58-38.49-19.58h-27.69V12.76h72.92c21.01,0,43.09,31.94,47.39,58.41l4.45,30.72l-32.41-13.01
		C319.85,84.84,311.15,78.07,304.76,69.3z M355.32,123.57c-7.87,0-14.27-6.4-14.27-14.27v-2.21l23.39,9.39l1.03,7.09H355.32z"/>
</g>
</svg>
