<?xml version="1.0" encoding="utf-8"?>
<!-- Generator: Adobe Illustrator 26.2.1, SVG Export Plug-In . SVG Version: 6.00 Build 0)  -->
<svg version="1.1" id="Capa_1" xmlns="http://www.w3.org/2000/svg" xmlns:xlink="http://www.w3.org/1999/xlink" x="0px" y="0px"
	 viewBox="0 0 809.57 716.26" style="enable-background:new 0 0 809.57 716.26;" xml:space="preserve">
<g>
	<path d="M205.81,554.85c-4.92,3.67-9.14,7.16-13.69,10.16c-24.58,16.18-51.8,22.58-80.83,19.56
		C52.85,578.48,9.94,534.16,1.84,482.14c-7.71-49.5,8.93-89.87,48.17-120.83c4.12-3.25,5.9-6.06,5.89-11.65
		c-0.06-39.05,5.95-77.21,18.78-114.16c18.78-54.11,48.85-101.03,90.58-140.28C211.5,51.72,265.63,22.9,327.57,8.65
		c32.34-7.44,65.1-10.03,98.05-7.96c72.68,4.57,138.02,29.22,195.23,74.49c54.17,42.86,92.3,97.2,114.57,162.57
		c10.32,30.29,16.19,61.49,17.55,93.49c0.29,6.75,0.75,13.52,0.57,20.26c-0.11,4.05,1.3,6.41,4.52,8.78
		c25.72,18.89,42.34,43.94,48.85,75.2c11.83,56.84-16.63,113.59-69.5,138.1c-4.42,2.05-6.05,4.3-5.8,9.13
		c0.74,14.69-0.91,29.04-6.45,42.89c-13.4,33.48-46.64,56.28-82.75,56.35c-30.44,0.05-60.87,0.08-91.31-0.09
		c-3.94-0.02-5.82,1.11-7.55,4.77c-8.84,18.7-23.66,29.04-44.52,29.4c-21.71,0.37-43.43,0.21-65.14,0.06
		c-24.46-0.16-45.26-20.17-47.76-44.62c-2.64-25.91,15.02-50.17,42.26-54.69c2.61-0.43,5.32-0.38,7.99-0.39
		c20.11-0.02,40.23-0.03,60.34,0.01c22.46,0.04,38.09,10.68,47.57,30.8c0.38,0.8,0.72,1.62,1.1,2.43c0.07,0.16,0.22,0.28,0.67,0.83
		c1.36,0.07,3.09,0.25,4.82,0.25c29.72,0.02,59.45,0.08,89.17-0.01c35.39-0.1,62.29-28.87,60.06-64.12c-0.02-0.34-0.19-0.67-0.6-2
		c-16.89,1.04-34,0.58-50.62-4.74c-16.61-5.32-31.73-13.17-45-25.13c64.44-65.87,94.36-144.24,85.11-235.86
		c-7.82-77.4-42.7-141.5-102.73-190.85C472.49,34.5,307.69,42.14,203.75,145.45c-56.6,56.26-85.24,124.93-84.97,204.74
		C119.05,429.85,149.11,497.55,205.81,554.85z"/>
	<path d="M388.8,475.12c-10.71-8.75-20.9-17.05-31.07-25.37c-34.43-28.16-68.85-56.34-103.28-84.49
		c-10.6-8.66-14.91-23.85-10.53-37.26c4.41-13.49,16.72-22.77,30.66-23.49c9.98-0.52,18.38,2.83,25.99,9.11
		c25.81,21.27,51.73,42.42,77.61,63.61c0.81,0.66,1.69,1.25,2.99,2.21c5.38-6,10.74-11.87,15.99-17.83
		c23.3-26.42,46.58-52.87,69.86-79.3c12.11-13.75,24.29-27.45,36.3-41.29c5.58-6.43,11.61-12.04,20.12-14.24
		c15.14-3.91,30.32,2.01,38.52,15.04c8.1,12.87,6.81,29.35-3.53,41.14c-23.22,26.49-46.55,52.89-69.86,79.31
		c-31.66,35.9-63.33,71.78-95,107.67C392.16,471.52,390.7,473.06,388.8,475.12z"/>
</g>
</svg>
