<svg width="27" height="26" viewBox="0 0 27 26" fill="none" xmlns="http://www.w3.org/2000/svg">
<path d="M25.72 12.16L20 6.44998C19.92 6.36998 19.83 6.29998 19.73 6.22998C19.49 6.07998 19.2 6.04998 18.94 6.13998C18.68 6.22998 18.47 6.43998 18.38 6.70998C18.34 6.82998 18.32 6.96998 18.32 7.11998V7.97998C18.32 8.28998 18.32 8.59998 18.32 8.89998L18.3 8.91998C16.95 8.91998 15.6 8.91998 14.25 8.91998H13.5C13.2 8.91998 12.94 9.01998 12.76 9.19998C12.58 9.37998 12.48 9.63998 12.48 9.94998V15.99C12.48 16.65 12.86 17.03 13.51 17.04C13.86 17.04 14.21 17.04 14.56 17.04H14.94H15.5H18.31V17.79C18.31 18.1 18.31 18.41 18.31 18.72C18.31 19.08 18.49 19.39 18.78 19.57C18.92 19.65 19.08 19.69 19.24 19.69C19.39 19.69 19.55 19.65 19.69 19.57C19.82 19.5 19.91 19.4 20.01 19.3L25.72 13.57C25.95 13.34 26.05 13.07 26.03 12.77C26.01 12.49 25.86 12.29 25.72 12.16ZM14 10.64L14.34 10.58C14.34 10.62 14.31 10.66 14.29 10.7L14 10.64ZM20.19 16.51V16.22C20.19 15.57 19.78 15.17 19.13 15.17H14.35L14.34 10.79H17.59C18.12 10.79 18.65 10.79 19.19 10.79C19.79 10.78 20.18 10.4 20.19 9.79998C20.19 9.61998 20.19 9.43998 20.19 9.25998L23.82 12.87L20.19 16.51Z" fill="black"/>
<path d="M16.61 18.08C16.35 17.91 16.02 17.89 15.73 18.02C15.38 18.17 15.19 18.48 15.18 18.88C15.18 19.22 15.18 19.55 15.18 19.89V22.54H12.9H12.55C12.25 22.54 11.95 22.54 11.65 22.54C11.46 22.54 11.29 22.6 11.14 22.69C11.14 22.38 11.14 22.08 11.14 21.77V2.92999C11.29 3.01999 11.46 3.07999 11.65 3.07999C11.95 3.08999 12.25 3.08999 12.55 3.08999H12.89H15.17V5.73999C15.17 6.07999 15.17 6.40999 15.17 6.74999C15.18 7.14999 15.37 7.45999 15.72 7.60999C15.85 7.66999 15.98 7.68999 16.11 7.68999C16.28 7.68999 16.45 7.63999 16.6 7.53999C16.87 7.35999 17.03 7.04999 17.03 6.70999V4.85999V3.77999V2.19999C17.03 1.61999 16.63 1.21999 16.04 1.21999C15.34 1.21999 14.65 1.20999 13.95 1.20999L11.67 1.21999C11.46 1.21999 11.28 1.26999 11.12 1.36999C11.12 1.22999 11.12 1.07999 11.12 0.93999C11.11 0.62999 10.98 0.34999 10.74 0.17999C10.5 0.00998983 10.2 -0.0500102 9.91 0.0499898C9.75 0.0899898 9.6 0.14999 9.44 0.19999L2.8 2.41999C2.26 2.60999 1.71 2.78999 1.17 2.97999C0.74 3.11999 0.51 3.44999 0.51 3.90999C0.5 4.20999 0.5 4.49999 0.5 4.79999V21.37C0.5 21.83 0.5 22.3 0.51 22.76C0.52 23.24 0.79 23.58 1.25 23.7C1.57 23.78 1.89 23.86 2.21 23.94L8.88 25.6C9.21 25.68 9.54 25.77 9.87 25.86C9.96 25.89 10.06 25.9 10.16 25.9C10.33 25.9 10.5 25.86 10.64 25.78C10.86 25.66 11.02 25.46 11.09 25.22C11.14 25.05 11.14 24.87 11.14 24.73C11.14 24.57 11.14 24.42 11.14 24.27C11.29 24.36 11.47 24.41 11.68 24.41H13.96C14.66 24.41 15.35 24.41 16.05 24.4C16.64 24.4 17.04 24 17.04 23.42V21.84V21.18V18.91C17.05 18.56 16.88 18.25 16.61 18.08ZM8.23 14.4C8.72 14.4 9.13 13.98 9.27 13.42V22.84V23.79C8.99 23.72 8.71 23.65 8.43 23.58L2.37 22.08C2.37 21.56 2.37 21.04 2.37 20.52V16.78V13.3V6.43999V4.52999L9.26 2.21999V12.56C9.12 11.99 8.71 11.58 8.22 11.58C7.62 11.58 7.13 12.21 7.13 12.99C7.13 13.77 7.62 14.4 8.23 14.4Z" fill="black"/>
</svg>
