<?xml version="1.0" encoding="utf-8"?>
<!-- Generator: Adobe Illustrator 26.2.1, SVG Export Plug-In . SVG Version: 6.00 Build 0)  -->
<svg version="1.1" xmlns="http://www.w3.org/2000/svg" xmlns:xlink="http://www.w3.org/1999/xlink" x="0px" y="0px"
	 viewBox="0 0 412.18 516.64" xml:space="preserve">
<style type="text/css">
	.escudost0{fill:#ADADAD;}
	.escudost1{fill:#E70016;}
</style>
<g>
	<path class="escudost0" d="M205.13,516.64c-2.48,0-4.3-0.98-6.23-2.4c-8.84-4.32-23.63-15.13-51.86-37.55
		c-24.97-19.84-60.47-49.83-87.78-79.98C6.47,338.46,0.3,274.69,0.05,272.01C0.02,271.58,0,271.15,0,270.72V116.69
		c0-7.33,5.44-13.53,12.71-14.48c0.53-0.07,54.04-7.21,94.58-24.49c54.87-23.36,86.25-70.63,86.56-71.11
		C196.55,2.5,201.16,0,206.08,0c0.01,0,0.02,0,0.03,0c4.94,0.01,9.54,2.5,12.23,6.64c0.3,0.46,31.66,47.73,86.52,71.09h0.01
		c40.55,17.27,94.06,24.41,94.58,24.49c7.27,0.95,12.71,7.15,12.71,14.48v154.03c0,0.43-0.02,0.86-0.05,1.28
		c-0.24,2.69-6.42,66.45-59.2,124.71c-27.3,30.15-62.81,60.13-87.78,79.98c-28.21,22.42-43.01,33.23-51.86,37.55
		c-2.16,1.6-4.15,2.63-7.19,2.35C205.76,516.63,205.43,516.64,205.13,516.64z M29.2,269.94c0.69,5.74,8.11,59.05,51.69,107.15
		c40.65,44.86,104.87,93.54,125.2,107.33c20.33-13.81,84.56-62.49,125.19-107.33c43.52-48.03,50.98-101.25,51.69-107.16V129.22
		c-19.42-3.3-57.45-10.94-89.55-24.61c-42.34-18.03-71.94-47.64-87.33-65.96c-15.4,18.31-45,47.93-87.35,65.96
		c-32.1,13.67-70.12,21.31-89.54,24.61V269.94z"/>
	<path class="escudost1" d="M193.24,319.59c-5.91,0-11.61-2.19-15.89-6.11l-45.15-41.47c-9.14-8.39-9.43-22.29-0.66-31.03
		c8.79-8.75,23.31-9.03,32.44-0.64l28.52,26.2l62.28-62.67c8.72-8.79,23.24-9.15,32.44-0.78c9.18,8.35,9.54,22.24,0.82,31.02
		l-78.17,78.65c-4.21,4.23-10,6.68-16.11,6.82C193.59,319.59,193.41,319.59,193.24,319.59z"/>
</g>
</svg>
