<svg width="27" height="18" viewBox="0 0 27 18" fill="none" xmlns="http://www.w3.org/2000/svg">
<g clip-path="url(#clip0_5_151)">
<path d="M10.27 8.52C10.27 10.34 11.61 11.82 13.27 11.82C14.93 11.82 16.27 10.34 16.27 8.52C16.27 6.7 14.93 5.22 13.27 5.22C11.61 5.22 10.27 6.7 10.27 8.52Z" fill="black"/>
<path d="M25.3 6.48C23.56 4.53 18.93 0 13.27 0C7.61 0 2.98 4.53 1.25 6.48C0.77 7.01 0.5 7.76 0.5 8.53C0.5 9.29 0.78 10.03 1.25 10.56C2.98 12.51 7.61 17.04 13.28 17.04C18.95 17.04 23.58 12.51 25.3 10.57C25.78 10.04 26.05 9.3 26.05 8.54C26.05 7.76 25.77 7.01 25.3 6.48ZM13.27 12.89C9.61 12.89 6.3 10.2 4.59 8.51C6.29 6.84 9.6 4.14 13.27 4.14C16.93 4.14 20.24 6.84 21.94 8.51C20.24 10.19 16.94 12.89 13.27 12.89Z" fill="black"/>
</g>
<defs>
<clipPath id="clip0_5_151">
<rect width="25.54" height="17.04" fill="white" transform="translate(0.5)"/>
</clipPath>
</defs>
</svg>
