<?xml version="1.0" encoding="utf-8"?>
<!-- Generator: Adobe Illustrator 26.2.1, SVG Export Plug-In . SVG Version: 6.00 Build 0)  -->
<svg version="1.1" xmlns="http://www.w3.org/2000/svg" xmlns:xlink="http://www.w3.org/1999/xlink" x="0px" y="0px"
	 viewBox="0 0 323.67 262.33" xml:space="preserve">

<g>
	<g>
		<path d="M170.49,0c3.81,0.76,7.64,1.46,11.43,2.3c36.6,8.11,64.74,38.91,69.55,76.06c2.72,20.97-1.35,40.58-12.05,58.76
			c-23.53,39.96-47.15,79.87-70.74,119.79c-0.6,1.01-1.17,2.06-1.91,2.96c-2.81,3.39-7.5,3.28-10.05-0.33
			c-1.5-2.13-2.72-4.46-4.05-6.7c-22.87-38.69-45.75-77.36-68.59-116.06C52.4,83.09,82.67,14.55,143.68,1.8
			c3.17-0.66,6.36-1.2,9.54-1.8C158.97,0,164.73,0,170.49,0z M161.88,243.57c1.06-1.75,1.82-2.95,2.54-4.17
			c21.46-36.35,42.9-72.72,64.38-109.06c9.33-15.79,12.73-32.78,10.14-50.88c-6.68-46.66-52.74-76.7-98-64.02
			C91.65,29.23,68.72,85.9,94.67,130.04c21.59,36.73,43.33,73.37,65.01,110.05C160.26,241.09,160.91,242.05,161.88,243.57z"/>
		<path d="M323.67,93.24c0.08,19.78-4.19,38.63-12.16,56.68c-0.42,0.95-0.83,1.93-1.42,2.79c-1.85,2.71-5.1,3.54-7.95,2.12
			c-2.86-1.42-4.21-4.44-3.08-7.57c1.55-4.29,3.52-8.44,4.98-12.76c11.62-34.33,8.91-67.64-7.31-99.96
			c-0.53-1.05-1.14-2.09-1.43-3.2c-0.79-3.08,0.54-5.87,3.29-7.22c2.72-1.34,5.74-0.63,7.65,1.97c0.92,1.25,1.62,2.68,2.32,4.08
			C318.58,50,323.58,71.03,323.67,93.24z"/>
		<path d="M0,92.58c0.16-22.49,5.47-43.71,15.8-63.67c0.48-0.93,0.95-1.87,1.56-2.71c1.9-2.62,4.84-3.41,7.6-2.13
			c2.78,1.29,4.18,4.07,3.39,7.15c-0.35,1.37-1.05,2.67-1.71,3.94c-10.8,21.1-15.41,43.51-13.83,67.12
			c0.96,14.33,4.45,28.1,10.26,41.25c0.53,1.19,1.11,2.37,1.52,3.61c1.11,3.34-0.24,6.47-3.28,7.83c-3.15,1.4-6.68,0.27-8.2-3.17
			c-2.42-5.49-4.71-11.06-6.58-16.76C1.99,121.17-0.04,107.06,0,92.58z"/>
		<path d="M31.87,94.63C32,78.96,34.63,65.45,39.99,52.5c0.54-1.3,1.2-2.66,2.14-3.68c1.91-2.07,5.19-2.32,7.57-0.84
			c2.46,1.52,3.52,4.53,2.53,7.53c-1.43,4.33-3.16,8.58-4.38,12.97c-4.89,17.58-4.56,35.11,0.86,52.53c0.27,0.87,0.6,1.74,0.76,2.63
			c0.62,3.36-1.27,6.61-4.27,7.43c-3.26,0.9-6.45-0.48-7.52-3.92c-1.71-5.47-3.03-11.06-4.36-16.64c-0.54-2.28-0.75-4.65-0.94-6.99
			C32.11,100.02,31.97,96.49,31.87,94.63z"/>
		<path d="M291.71,95.33c0.08,9.02-1.74,19.93-5.12,30.6c-0.79,2.49-2.04,4.55-4.8,5.19c-5.03,1.18-8.67-3.06-7.34-8.38
			c1.33-5.31,2.85-10.6,3.72-15.99c2.65-16.51,0.5-32.54-5.49-48.1c-0.47-1.22-1.07-2.4-1.42-3.65c-0.86-3.12,0.66-6.17,3.58-7.41
			c2.78-1.18,5.9-0.3,7.61,2.26c0.57,0.86,0.94,1.86,1.33,2.82C289.1,65.63,291.78,79.12,291.71,95.33z"/>
		<path d="M109.87,89.92c0.27-29.01,23.74-51.78,53.04-51.45c28.39,0.32,51.29,24.08,50.91,52.82
			c-0.37,28.58-24.08,51.77-52.48,51.32C132.34,142.15,109.6,118.87,109.87,89.92z M201.27,90.41
			c-0.06-21.83-17.63-39.38-39.42-39.38c-21.79-0.01-39.36,17.54-39.42,39.37c-0.06,21.95,17.81,39.84,39.6,39.65
			C183.86,129.85,201.33,112.2,201.27,90.41z"/>
		<path d="M161.77,113.29c-12.75-0.04-22.82-10.26-22.73-23.06c0.09-12.43,10.45-22.66,22.89-22.62
			c12.65,0.05,22.83,10.43,22.73,23.16C184.56,103.35,174.42,113.33,161.77,113.29z M172.1,90.49c0-5.63-4.54-10.24-10.15-10.31
			c-5.57-0.07-10.25,4.51-10.34,10.11c-0.1,5.86,4.47,10.47,10.34,10.42C167.64,100.67,172.09,96.18,172.1,90.49z"/>
	</g>
</g>
</svg>
