<?xml version="1.0" encoding="utf-8"?>
<!-- Generator: Adobe Illustrator 25.3.1, SVG Export Plug-In . SVG Version: 6.00 Build 0)  -->
<svg version="1.1" xmlns="http://www.w3.org/2000/svg" xmlns:xlink="http://www.w3.org/1999/xlink" x="0px" y="0px"
	 viewBox="0 0 139.02 146.36" style="enable-background:new 0 0 139.02 146.36;" xml:space="preserve">
<style type="text/css">
	.st0{display:none;}
	.st1{display:inline;fill:url(#SVGID_1_);}
	.st2{fill:#F3F2F2;}
	.st3{fill:none;stroke:#E8E7E7;stroke-miterlimit:10;}
	.st4{fill:#E20D18;}
	.st5{fill:#E30613;}
	.st6{fill:none;}
	.st7{fill:#BF1C1D;}
	.st8{fill:none;stroke:#FFFFFF;stroke-width:1.1979;stroke-linecap:round;stroke-linejoin:round;stroke-miterlimit:10;}
	.st9{fill:#FFFFFF;}
	.st10{fill:none;stroke:#FFFFFF;stroke-width:1.1468;stroke-linecap:round;stroke-linejoin:round;stroke-miterlimit:10;}
	.st11{fill:none;stroke:#E5B466;stroke-width:1.1468;stroke-linecap:round;stroke-linejoin:round;stroke-miterlimit:10;}
	.st12{fill:#E5B466;}
	.st13{fill:none;stroke:#000000;stroke-width:0.5;stroke-miterlimit:10;}
	.st14{fill:none;stroke:#AAAAA9;stroke-width:0.25;stroke-miterlimit:10;}
	.st15{fill:none;stroke:#B0B0B0;stroke-width:2;stroke-miterlimit:10;}
	.st16{clip-path:url(#SVGID_7_);}
	.st17{fill:#818282;}
	.st18{fill:none;stroke:#E20D18;stroke-width:0.7207;stroke-miterlimit:10;}
	.st19{opacity:0.7;fill:#F3F2F2;}
	.st20{fill:none;stroke:#818282;stroke-width:0.5;stroke-miterlimit:10;}
	.st21{fill:#E8E7E7;}
	.st22{fill:none;stroke:#CECECD;stroke-width:0.5;stroke-miterlimit:10;}
	.st23{fill:#A08449;}
	.st24{fill:none;stroke:#000000;stroke-width:0.3197;stroke-miterlimit:10;}
	.st25{fill:#E6B566;stroke:#FFFFFF;stroke-width:0.1774;stroke-miterlimit:10;}
	.st26{fill:#E6B566;stroke:#FFFFFF;stroke-width:0.1781;stroke-miterlimit:10;}
	.st27{fill:#E6B566;stroke:#FFFFFF;stroke-width:0.1748;stroke-miterlimit:10;}
	.st28{fill:#E6B566;stroke:#FFFFFF;stroke-width:0.1659;stroke-miterlimit:10;}
	.st29{fill:#FFFFFF;stroke:#FFFFFF;stroke-width:0.1057;stroke-miterlimit:10;}
	.st30{fill:#E6B566;stroke:#FFFFFF;stroke-width:0.1061;stroke-miterlimit:10;}
	.st31{fill:#FFFFFF;stroke:#FFFFFF;stroke-width:0.1749;stroke-miterlimit:10;}
	.st32{fill:#E6B566;stroke:#FFFFFF;stroke-width:0.1756;stroke-miterlimit:10;}
	.st33{fill:#CECECD;}
	.st34{fill:none;stroke:#818282;stroke-width:0.4612;stroke-miterlimit:10;}
	.st35{fill:#CECECD;stroke:#CECECD;stroke-width:3;stroke-miterlimit:10;}
	.st36{fill:#E30613;stroke:#CECECD;stroke-miterlimit:10;}
	.st37{fill:#9C9B9B;}
	.st38{fill:#FFFFFF;stroke:#FFFFFF;stroke-width:0.1196;stroke-miterlimit:10;}
	.st39{fill:#E6B566;stroke:#FFFFFF;stroke-width:0.1201;stroke-miterlimit:10;}
	.st40{fill:#4D4D4D;}
	.st41{fill:none;stroke:#E8E7E7;stroke-width:0.8873;stroke-miterlimit:10;}
	.st42{fill:#115EA8;}
	.st43{fill:#020203;}
	.st44{fill:#303031;}
	.st45{fill:#E20D18;stroke:#FFFFFF;stroke-width:0.5;stroke-miterlimit:10;}
	.st46{fill:#999999;}
</style>
<g id="BACKGROUND" class="st0">
</g>
<g id="OBJECTS">
	<g>
		<circle class="st5" cx="69.55" cy="75.16" r="3"/>
		<path class="st5" d="M64.07,82.09c-0.31,0-0.62-0.1-0.88-0.31c-1.94-1.6-3.06-3.95-3.06-6.45c0-2.58,1.17-4.97,3.21-6.57
			c0.6-0.47,1.47-0.37,1.94,0.23c0.47,0.6,0.37,1.47-0.23,1.94c-1.37,1.07-2.16,2.68-2.16,4.4c0,1.67,0.75,3.24,2.05,4.32
			c0.59,0.48,0.67,1.35,0.19,1.94C64.86,81.92,64.47,82.09,64.07,82.09z"/>
		<path class="st5" d="M59.51,86.15c-0.31,0-0.62-0.1-0.88-0.31c-3.16-2.6-4.97-6.41-4.97-10.47c0-4.18,1.9-8.07,5.22-10.67
			c0.6-0.47,1.47-0.37,1.94,0.23c0.47,0.6,0.37,1.47-0.23,1.94c-2.65,2.07-4.16,5.17-4.16,8.5c0,3.23,1.44,6.27,3.96,8.34
			c0.59,0.48,0.67,1.35,0.19,1.94C60.3,85.98,59.9,86.15,59.51,86.15z"/>
		<path class="st5" d="M74.95,82.09c-0.4,0-0.79-0.17-1.07-0.5c-0.48-0.59-0.4-1.46,0.19-1.94c1.3-1.07,2.05-2.65,2.05-4.32
			c0-1.72-0.79-3.33-2.16-4.4c-0.6-0.47-0.7-1.34-0.23-1.94c0.47-0.6,1.34-0.7,1.94-0.23c2.04,1.6,3.21,4,3.21,6.57
			c0,2.5-1.11,4.85-3.06,6.45C75.57,81.99,75.26,82.09,74.95,82.09z"/>
		<path class="st5" d="M79.52,86.15c-0.4,0-0.79-0.17-1.07-0.5c-0.48-0.59-0.4-1.46,0.19-1.94c2.52-2.07,3.96-5.11,3.96-8.34
			c0-3.33-1.52-6.43-4.16-8.5c-0.6-0.47-0.7-1.34-0.23-1.94c0.47-0.6,1.34-0.7,1.94-0.23c3.32,2.6,5.22,6.49,5.22,10.67
			c0,4.06-1.81,7.87-4.97,10.47C80.14,86.05,79.83,86.15,79.52,86.15z"/>
	</g>
	<path class="st5" d="M68.65,49.38c-0.29,0-0.58-0.11-0.79-0.32l-2.25-2.16c-0.46-0.44-0.47-1.16-0.03-1.62
		c0.44-0.46,1.16-0.47,1.62-0.03l1.42,1.36l3.1-3.26c0.43-0.46,1.16-0.48,1.62-0.04c0.46,0.43,0.48,1.16,0.04,1.61l-3.89,4.09
		c-0.21,0.22-0.5,0.35-0.8,0.35C68.66,49.38,68.65,49.38,68.65,49.38z"/>
	<path class="st17" d="M81.4,46.19c0-6.55-5.31-11.85-11.85-11.85c-6.55,0-11.85,5.31-11.85,11.85c0,0.07,0.01,0.15,0.01,0.22
		c0,0.08-0.01,0.15-0.01,0.23c0,0.43,0.06,0.85,0.14,1.29c0.34,2.3,1.33,4.38,2.79,6.05c2.21,3.62,5.21,8.03,7.26,14.13
		c0.47,1.39,2.92,1.41,3.33,0c1.58-5.46,4.8-10.11,7.21-14.07c1.52-1.72,2.55-3.87,2.87-6.26c0.02-0.11,0.03-0.21,0.05-0.32
		c0.01-0.06,0.01-0.11,0.01-0.17c0.02-0.22,0.06-0.44,0.06-0.65c0-0.08-0.01-0.15-0.01-0.23C81.39,46.34,81.4,46.27,81.4,46.19z
		 M69.55,53.81c-4.21,0-7.62-3.41-7.62-7.62c0-4.21,3.41-7.62,7.62-7.62s7.62,3.41,7.62,7.62C77.17,50.4,73.76,53.81,69.55,53.81z"
		/>
</g>
<g id="DESIGNED_BY_FREEPIK">
</g>
<g id="Capa_4">
</g>
</svg>
