<svg width="33" height="37" viewBox="0 0 33 37" fill="none" xmlns="http://www.w3.org/2000/svg">
<path d="M20.41 36.06H15.72C15.61 36.06 13.11 36.04 11.19 34.57C10.17 33.78 8.97997 32.08 8.72997 31.72C8.42997 31.36 6.19997 28.76 5.00997 27.57C3.67997 26.24 1.55997 23.7 1.46997 23.59C0.699973 22.66 -0.280027 20.38 1.49997 18.41C3.29997 16.42 6.06997 17.63 7.41997 18.66C7.53997 18.75 8.63997 19.59 9.31997 20.66V2.93L9.37997 2.76C9.76997 1.73 10.93 0 12.86 0C15.21 0 16.34 2.21 16.39 2.31L16.5 2.52V11.88C17.22 11.46 17.99 11.24 18.75 11.24C20.02 11.24 21.09 12.01 21.71 13.37C22.38 13.09 23.3 12.82 24.28 12.82C25.44 12.82 26.5 13.61 27.29 15.04C27.96 14.72 28.87 14.4 29.81 14.4C31.63 14.4 32.5 16.22 32.72 17.3L32.74 17.5L32.73 26.93C32.71 27.08 32.23 30.66 29.6 33.07C26.92 35.53 25 35.81 24.54 35.85C24.26 35.9 22.96 36.06 20.41 36.06ZM3.94997 19.36C3.58997 19.36 3.24997 19.47 2.98997 19.76C1.96997 20.88 2.83997 22.09 3.01997 22.32C3.02997 22.34 5.15997 24.89 6.42997 26.16C7.75997 27.49 10.19 30.35 10.3 30.47L10.37 30.56C10.7 31.05 11.72 32.45 12.42 32.99C13.79 34.04 15.72 34.07 15.74 34.07H20.43C23.09 34.07 24.28 33.88 24.3 33.88L24.45 33.87C24.44 33.87 25.94 33.75 28.28 31.61C30.2 29.85 30.7 27.16 30.76 26.74V17.63C30.66 17.28 30.33 16.4 29.83 16.4C29.3 16.4 28.63 16.6 27.95 16.96C27.54 17.17 27.08 17.22 26.65 17.07C26.22 16.93 25.87 16.63 25.67 16.22C25.25 15.36 24.73 14.82 24.31 14.82C23.52 14.82 22.75 15.1 22.25 15.33C21.83 15.52 21.35 15.53 20.93 15.36C20.51 15.19 20.17 14.84 20.01 14.41C19.71 13.63 19.3 13.23 18.78 13.23C18.02 13.23 17.37 13.66 16.95 14.02C16.51 14.4 15.91 14.48 15.39 14.24C14.83 14.01 14.5 13.5 14.5 12.92V3.03C14.28 2.7 13.71 2 12.86 2C12.04 2 11.5 2.95 11.32 3.32V22.86L10.77 23.14C10.16 23.45 8.71997 23.56 7.66997 21.8C7.18997 21 6.22997 20.27 6.21997 20.26C6.19997 20.25 4.97997 19.36 3.94997 19.36Z" fill="black"/>
</svg>
