<svg width="413" height="288" viewBox="0 0 413 288" fill="none" xmlns="http://www.w3.org/2000/svg">
<g clip-path="url(#clip0_5_134)">
<path d="M31.8774 269.28C31.1197 268.09 30.0914 267.115 28.7925 266.358C27.5207 265.6 26.1135 264.951 24.6252 264.464C23.1368 263.976 21.6214 263.489 20.1061 263.056C18.5907 262.596 17.1835 262.109 15.9387 261.595C14.6669 261.081 13.6656 260.431 12.9079 259.647C12.1502 258.862 11.7714 257.834 11.7714 256.562C11.7984 255.101 12.2855 253.829 13.1785 252.746C14.0986 251.664 15.3704 250.825 17.0211 250.23C18.6718 249.634 20.6202 249.337 22.8933 249.337C24.977 249.337 27.0065 249.607 28.9278 250.175C30.8491 250.717 32.6081 251.556 34.1235 252.665L36.4777 247.821C34.827 246.685 32.8246 245.819 30.4973 245.223C28.1701 244.628 25.7347 244.33 23.1639 244.33C19.7813 244.33 16.7776 244.845 14.2068 245.9C11.609 246.955 9.60653 248.417 8.14525 250.338C6.68398 252.259 5.95334 254.532 5.95334 257.184C5.95334 259.078 6.33219 260.648 7.11695 261.893C7.87465 263.138 8.90295 264.139 10.1477 264.951C11.3925 265.735 12.7726 266.412 14.288 266.926C15.8034 267.467 17.3188 267.927 18.8342 268.36C20.3496 268.766 21.7297 269.226 22.9745 269.713C24.2193 270.2 25.2205 270.85 26.0323 271.635C26.8171 272.419 27.223 273.421 27.223 274.665C27.223 276.154 26.763 277.426 25.8429 278.481C24.9228 279.536 23.5969 280.321 21.9191 280.889C20.2143 281.431 18.2659 281.728 16.047 281.728C14.3151 281.728 12.6373 281.539 10.9866 281.133C9.33592 280.727 7.82052 280.186 6.35925 279.482C4.92504 278.779 3.65319 277.94 2.59782 276.993L0 281.647C0.974183 282.594 2.30015 283.433 3.92379 284.191C5.54743 284.948 7.38755 285.544 9.36298 286.004C11.3655 286.464 13.395 286.68 15.4787 286.68C18.9424 286.68 22.0003 286.166 24.6252 285.138C27.2501 284.11 29.3067 282.621 30.7679 280.673C32.2563 278.724 32.9869 276.424 32.9869 273.772C33.014 271.959 32.6351 270.471 31.8774 269.28Z" fill="white"/>
<path d="M59.1276 244.763L32.0128 286.193H38.3991L45.0019 275.829H67.1105L69.6 286.193H75.4722L64.9997 244.763H59.1276ZM48.0056 271.121L61.0218 250.69L65.9469 271.121H48.0056Z" fill="white"/>
<path d="M116.361 244.763L94.4148 278.833L86.3507 244.763H80.2621L90.1933 286.193H95.9843L122.504 244.763H116.361Z" fill="white"/>
<path d="M148.726 267.684L149.727 262.651H128.89L131.434 249.932H154.814L155.815 244.763H126.59L118.309 286.193H148.428L149.429 281.052H125.237L127.889 267.684H148.726Z" fill="white"/>
<path d="M173.269 253.585C174.379 253.233 175.732 253.044 177.356 253.044C179.412 253.044 181.415 253.314 183.363 253.856C185.311 254.397 187.07 255.182 188.667 256.264L192.997 247.496C191.129 246.36 188.938 245.467 186.367 244.872C183.796 244.249 181.063 243.951 178.14 243.951C174.027 243.951 170.482 244.574 167.505 245.792C164.529 247.009 162.229 248.741 160.605 250.933C158.981 253.152 158.169 255.723 158.169 258.672C158.169 260.567 158.521 262.136 159.225 263.381C159.928 264.626 160.903 265.654 162.093 266.493C163.284 267.332 164.61 268.008 166.071 268.577C167.505 269.118 168.94 269.578 170.401 269.93C171.835 270.281 173.161 270.633 174.325 270.985C175.515 271.337 176.463 271.77 177.193 272.284C177.924 272.798 178.276 273.421 178.276 274.178C178.276 274.936 177.978 275.585 177.41 276.127C176.841 276.668 176.03 277.101 174.974 277.425C173.919 277.75 172.674 277.886 171.213 277.886C169.589 277.886 167.993 277.723 166.423 277.425C164.853 277.101 163.284 276.641 161.769 276.045C160.253 275.423 158.792 274.692 157.358 273.826L152.73 282.648C154.002 283.433 155.518 284.164 157.276 284.84C159.062 285.517 161.038 286.031 163.203 286.437C165.368 286.843 167.641 287.032 170.022 287.032C174.081 287.032 177.599 286.41 180.576 285.192C183.552 283.974 185.88 282.242 187.53 280.05C189.181 277.831 190.02 275.261 190.02 272.311C190.02 270.498 189.641 268.983 188.883 267.765C188.126 266.547 187.152 265.546 185.961 264.734C184.77 263.949 183.444 263.3 181.983 262.786C180.549 262.272 179.114 261.839 177.68 261.46C176.273 261.081 174.947 260.729 173.756 260.377C172.566 260.025 171.592 259.593 170.861 259.078C170.13 258.564 169.779 257.915 169.779 257.13C169.779 256.372 170.076 255.696 170.672 255.1C171.321 254.424 172.187 253.937 173.269 253.585Z" fill="white"/>
<path d="M232.532 279.347L225.605 272.528C224.144 274.178 222.547 275.396 220.842 276.181C219.137 276.938 217.351 277.344 215.484 277.344C213.401 277.344 211.587 276.966 210.072 276.181C208.557 275.423 207.393 274.314 206.581 272.934C205.769 271.526 205.364 269.903 205.364 268.063C205.364 266.006 205.688 264.112 206.311 262.353C206.933 260.594 207.853 259.078 209.044 257.753C210.234 256.454 211.642 255.452 213.265 254.722C214.889 254.018 216.729 253.666 218.731 253.666C220.815 253.666 222.628 254.072 224.144 254.911C225.659 255.75 226.904 256.941 227.905 258.51L236.321 251.772C234.86 249.255 232.641 247.307 229.691 245.981C226.741 244.628 223.332 243.979 219.516 243.979C215.647 243.979 212.129 244.601 208.963 245.819C205.797 247.036 203.063 248.768 200.763 250.987C198.463 253.206 196.704 255.858 195.432 258.889C194.16 261.92 193.538 265.248 193.538 268.82C193.538 272.419 194.377 275.585 196.082 278.319C197.787 281.052 200.195 283.19 203.361 284.732C206.527 286.274 210.207 287.032 214.429 287.032C218.109 287.032 221.438 286.437 224.495 285.273C227.499 284.11 230.205 282.134 232.532 279.347Z" fill="white"/>
<path d="M255.128 244.763L228.554 286.193H240.975L245.765 278.075H263.327L265.005 286.193H276.722L266.656 244.763H255.128ZM250.852 269.524L258.808 256.075L261.595 269.524H250.852Z" fill="white"/>
<path d="M310.494 267.467L296.747 244.763H287.087L278.806 286.193H290.28L294.799 263.516L308.519 286.193H318.152L326.433 244.763H314.959L310.494 267.467Z" fill="white"/>
<path d="M268.117 126.59C250.23 107.485 224.225 96.9582 194.891 96.9582H130.027L121.746 135.032H186.61C206.798 135.032 224.658 142.258 236.916 155.355C278.536 199.843 303.107 222.411 331.953 222.411L340.234 184.337C321.914 184.337 301.943 162.743 268.117 126.59Z" fill="white"/>
<path d="M70.1954 191.589H148.671C174.541 191.589 200.168 171.781 208.097 146.56C200.98 144.017 193.213 142.636 184.96 142.636H171.024C169.238 148.725 163.149 153.542 156.952 153.542H78.476C71.9814 153.542 67.8141 148.238 69.2483 141.743L89.2462 49.8997C90.6533 43.3781 97.1208 38.1013 103.615 38.1013H182.091C188.586 38.1013 192.753 43.4052 191.319 49.8997L182.741 89.3541H196.569C204.768 89.3541 212.697 90.1389 220.301 91.6542L229.394 49.8997C235.347 22.3791 217.839 0 190.345 0H111.869C84.3752 0 57.1522 22.3791 51.1718 49.8727L31.1739 141.716C25.1935 169.21 42.7018 191.589 70.1954 191.589Z" fill="white"/>
<path d="M330.492 0H307.815H225.849C236.429 8.93002 242.518 22.4333 242.193 38.0743H299.535H322.212C328.706 38.0743 332.873 43.3782 331.439 49.8728L329.707 57.8286H280.159L275.938 77.177H325.486L323.754 85.1328C322.347 91.6544 315.879 96.9313 309.385 96.9313H238.621C252.368 102.262 264.518 110.299 274.341 120.799L275.478 122.016C279.726 126.563 283.758 130.865 287.628 134.979H301.05C328.544 134.979 355.794 112.599 361.774 85.1058L363.506 77.1499H386.102C391.676 77.1499 397.142 72.6308 398.36 67.0834L400.39 57.8286H367.755L369.486 49.8728C370.379 45.8137 370.677 41.8628 370.596 38.0743H384.207C395.546 38.0743 406.722 28.9008 409.184 17.5624L413 0H330.492Z" fill="white"/>
</g>
<defs>
<clipPath id="clip0_5_134">
<rect width="413" height="287.032" fill="white"/>
</clipPath>
</defs>
</svg>
