<svg width="28" height="27" viewBox="0 0 28 27" fill="none" xmlns="http://www.w3.org/2000/svg">
<path d="M23.58 4.25999C21.16 1.64999 17.86 0.139992 14.29 0.00999225C10.71 -0.120008 7.32001 1.14999 4.71001 3.58999C2.10001 6.03999 0.610007 9.35999 0.500007 12.96C0.310007 20.21 6.05001 26.33 13.29 26.61C13.47 26.62 13.65 26.62 13.83 26.62C17.2 26.62 20.39 25.37 22.86 23.08C25.47 20.66 26.98 17.37 27.11 13.8C27.25 10.25 25.99 6.85999 23.58 4.25999ZM21.4 20.84C19.39 22.87 16.71 23.99 13.84 24C13.83 24 13.81 24 13.8 24C10.96 24 8.29001 22.9 6.28001 20.89C4.26001 18.88 3.14001 16.19 3.13001 13.34C3.11001 7.46999 7.86001 2.65999 13.71 2.61999C13.73 2.61999 13.76 2.61999 13.78 2.61999C16.63 2.61999 19.31 3.71999 21.33 5.71999C23.36 7.72999 24.48 10.4 24.49 13.23C24.51 16.12 23.41 18.82 21.4 20.84Z" fill="black"/>
<path d="M16.32 18.04C16.17 17.95 15.98 17.99 15.85 18.13C15.81 18.18 15.77 18.23 15.73 18.28C15.38 18.69 14.98 19 14.4 18.97C14.1 18.95 13.91 18.77 13.92 18.47C13.93 18.25 13.98 18.04 14.03 17.82C14.27 16.88 14.52 15.94 14.77 15.01C15.02 14.04 15.28 13.07 15.53 12.09C15.61 11.77 15.7 11.45 15.77 11.13C15.82 10.86 15.65 10.67 15.37 10.68C15.27 10.68 15.16 10.69 15.06 10.7C13.81 10.85 12.56 10.99 11.31 11.14C11.07 11.17 10.92 11.34 10.94 11.58C10.96 11.79 11.16 11.93 11.39 11.9C11.6 11.87 11.81 11.85 12.03 11.82C12.36 11.78 12.6 12.05 12.52 12.38C12.39 12.9 12.25 13.41 12.12 13.92C11.74 15.4 11.35 16.88 10.97 18.36C10.83 18.9 10.82 19.45 11.02 19.98C11.3 20.73 11.99 21.17 12.88 21.18C13.03 21.17 13.18 21.16 13.33 21.14C14.17 20.99 14.88 20.58 15.47 19.98C15.89 19.55 16.24 19.06 16.48 18.5C16.57 18.33 16.5 18.14 16.32 18.04Z" fill="black"/>
<path d="M14.91 5.43C13.97 5.41 13.07 6.14 13.06 7.26C13.05 8.29 13.88 9.11 14.91 9.11C15.92 9.11 16.74 8.28 16.74 7.28C16.74 6.26 15.92 5.43 14.91 5.43Z" fill="black"/>
</svg>
