<svg width="34" height="33" viewBox="0 0 34 33" fill="none" xmlns="http://www.w3.org/2000/svg">
<path d="M25.73 14.25C25.1 13.62 24.47 12.99 23.84 12.37C23.63 12.17 23.62 12.16 23.42 12.37C22.7 13.09 21.99 13.81 21.27 14.53C20.4 15.4 19.54 16.26 18.67 17.13C18.27 17.53 17.86 17.94 17.46 18.34C17.24 18.57 17.24 18.56 17.39 18.82C17.51 19.01 17.62 19.21 17.72 19.41C18.2 20.35 18.51 21.34 18.66 22.39C18.79 23.34 18.77 24.28 18.61 25.22C18.49 25.97 18.25 26.7 17.94 27.4C17.43 28.55 16.69 29.54 15.78 30.4C15.21 30.93 14.57 31.39 13.88 31.75C13.03 32.19 12.14 32.51 11.21 32.67C10.29 32.83 9.35998 32.84 8.42998 32.72C7.36998 32.59 6.36998 32.26 5.42998 31.77C4.02998 31.04 2.90998 30.01 2.02998 28.7C1.51998 27.94 1.14998 27.12 0.879977 26.25C0.729977 25.77 0.669977 25.27 0.589977 24.77C0.429977 23.82 0.509977 22.88 0.659977 21.94C0.799977 21.1 1.07998 20.3 1.45998 19.54C2.09998 18.25 2.99998 17.16 4.14998 16.3C5.10998 15.58 6.16998 15.05 7.33998 14.76C8.07998 14.58 8.82998 14.44 9.59998 14.46C10.11 14.47 10.63 14.5 11.13 14.58C11.65 14.67 12.17 14.82 12.68 14.98C13.29 15.18 13.87 15.48 14.42 15.81C14.67 15.96 14.68 15.96 14.89 15.75C16.08 14.56 17.27 13.36 18.46 12.17C19.83 10.79 21.2 9.41 22.57 8.02C24.02 6.55 25.47 5.08 26.93 3.62C28.08 2.47 29.23 1.32 30.38 0.169998C30.61 -0.0600024 30.61 -0.0600024 30.83 0.169998C31.56 0.899998 32.28 1.64 33.01 2.37C33.13 2.49 33.14 2.58 33.01 2.7C32.53 3.17 32.07 3.66 31.6 4.14C31.08 4.66 30.56 5.19 30.04 5.71C29.91 5.83 29.91 5.93 30.03 6.05C30.39 6.41 30.74 6.79 31.1 7.15C32.02 8.07 32.94 8.99 33.86 9.91C34.04 10.09 34.04 10.1 33.86 10.27C33.13 11.01 32.4 11.75 31.67 12.49C31.49 12.67 31.46 12.68 31.28 12.5C30.94 12.16 30.61 11.82 30.28 11.48C29.45 10.64 28.61 9.8 27.77 8.97C27.61 8.81 27.44 8.66 27.29 8.52C26.97 8.82 26.67 9.1 26.38 9.39C26.22 9.55 26.23 9.59 26.39 9.76C27.05 10.43 27.71 11.1 28.37 11.76C28.54 11.93 28.54 11.96 28.37 12.13C27.84 12.66 27.31 13.18 26.79 13.72C26.54 13.98 26.3 14.25 26.03 14.54C25.91 14.4 25.81 14.33 25.73 14.25ZM9.85998 18.11C6.67998 17.98 4.28998 20.48 4.14998 23.3C3.97998 26.59 6.52998 29.09 9.50998 29.15C12.6 29.21 15.09 26.73 15.12 23.66C15.13 20.69 12.81 18.23 9.85998 18.11Z" fill="black"/>
</svg>
