<svg width="23" height="27" viewBox="0 0 23 27" fill="none" xmlns="http://www.w3.org/2000/svg">
<g clip-path="url(#clip0_5_230)">
<path d="M22.4302 0.28C22.4302 0.04 22.3902 0.01 22.1502 0.01C22.1302 0.01 22.1202 0.01 22.1002 0.01C16.0602 0 10.0102 0 3.97024 0C3.58024 0 3.21024 0.09 2.84024 0.16C2.68024 0.19 2.52024 0.26 2.37024 0.34C2.22024 0.42 2.06024 0.51 1.92024 0.62C1.73024 0.77 1.55024 0.92 1.39024 1.09C1.19024 1.3 1.01024 1.52 0.900237 1.8C0.820237 1.99 0.690237 2.17 0.650237 2.36C0.580237 2.73 0.500237 3.1 0.500237 3.48C0.510237 9.82 0.510237 16.16 0.500237 22.5C0.500237 22.91 0.490237 23.32 0.600237 23.73C0.640237 23.89 0.640237 24.05 0.740237 24.19C0.760237 24.21 0.760237 24.25 0.770237 24.28C0.840237 24.44 0.900237 24.6 0.990237 24.74C1.22024 25.08 1.47024 25.38 1.81024 25.64C2.12024 25.88 2.46024 26.06 2.82024 26.17C3.18024 26.27 3.56024 26.34 3.95024 26.34C10.0002 26.34 16.0502 26.34 22.1002 26.34C22.1602 26.34 22.2202 26.33 22.2802 26.33C22.3602 26.32 22.4102 26.27 22.4102 26.19C22.4102 26.1 22.4202 26.02 22.4202 25.93C22.4202 21.68 22.4202 4.71 22.4202 0.48C22.4302 0.4 22.4302 0.34 22.4302 0.28ZM2.82024 2.76C2.93024 2.58 3.08024 2.43 3.27024 2.32C3.50024 2.18 3.76024 2.18 4.02024 2.18C9.30024 2.18 14.5802 2.18 19.8602 2.18C19.9502 2.18 20.0402 2.18 20.1302 2.19C20.2102 2.19 20.2502 2.24 20.2502 2.32C20.2502 2.4 20.2602 2.48 20.2602 2.56C20.2602 5.36 20.2602 8.16 20.2602 10.96C20.2602 13.77 20.2602 16.57 20.2602 19.38C20.2602 19.77 20.2602 19.77 19.8702 19.77C14.5302 19.77 9.20024 19.77 3.86024 19.77C3.65024 19.77 3.44024 19.78 3.23024 19.79C3.16024 19.79 3.09024 19.83 3.03024 19.85C2.98024 19.87 2.94024 19.9 2.89024 19.91C2.72024 19.95 2.67024 19.91 2.66024 19.74C2.66024 19.67 2.66024 19.61 2.66024 19.54C2.66024 14.19 2.66024 8.83 2.66024 3.48C2.67024 3.23 2.69024 2.98 2.82024 2.76ZM20.2602 23.09C20.2602 23.38 20.2602 23.66 20.2602 23.95C20.2602 24.12 20.2302 24.14 20.0602 24.15C19.9902 24.15 19.9202 24.15 19.8502 24.15C17.1802 24.15 14.5002 24.15 11.8302 24.15C9.23024 24.15 6.64024 24.15 4.04024 24.15C3.94024 24.15 3.85024 24.15 3.75024 24.15C3.35024 24.15 3.05024 23.93 2.85024 23.62C2.71024 23.41 2.62024 23.15 2.68024 22.88C2.75024 22.58 2.89024 22.31 3.17024 22.12C3.41024 21.96 3.67024 21.94 3.93024 21.94C4.66024 21.93 5.39024 21.94 6.11024 21.94C10.6802 21.94 15.2402 21.94 19.8102 21.94C19.8902 21.94 19.9602 21.94 20.0402 21.94C20.2302 21.95 20.2602 21.98 20.2602 22.17C20.2602 22.47 20.2602 22.78 20.2602 23.09Z" fill="black"/>
<path d="M6.17 7.65C6.22 7.66 6.28 7.66 6.34 7.66C10.12 7.66 13.9 7.66 17.69 7.66C17.75 7.66 17.8 7.66 17.86 7.65C18 7.63 18.04 7.58 18.04 7.44C18.04 6.9 18.04 6.36 18.04 5.82C18.04 5.57 17.97 5.5 17.72 5.5C15.82 5.5 13.92 5.5 12.02 5.5C10.11 5.5 8.2 5.5 6.29 5.5C6.07 5.5 6 5.56 6 5.79C6 6.34 6 6.89 6 7.44C6 7.57 6.04 7.63 6.17 7.65Z" fill="black"/>
</g>
<defs>
<clipPath id="clip0_5_230">
<rect width="21.93" height="26.33" fill="white" transform="translate(0.5)"/>
</clipPath>
</defs>
</svg>
