<svg width="28" height="40" viewBox="0 0 28 40" fill="none" xmlns="http://www.w3.org/2000/svg">
<path d="M25.85 16.95C25.48 16.86 25.08 16.84 24.7 16.84C22.6 16.84 20.49 16.84 18.39 16.84C16.98 16.84 15.57 16.84 14.15 16.84C12.74 16.84 11.33 16.84 9.91 16.84C8.99 16.84 8.06 16.84 7.14 16.84C7.13 16.73 7.12 16.61 7.12 16.56C7.12 15.07 7.11 13.59 7.12 12.1C7.13 10.88 7.36 9.71 7.93 8.62C9.53 5.59 12.06 4.01 15.48 4.17C18.78 4.33 21.12 6.06 22.43 9.11C22.69 9.71 22.8 10.37 22.98 11C23.27 11.99 24.26 12.63 25.28 12.46C26.51 12.26 27.25 11.16 27 9.88C26.54 7.48 25.47 5.39 23.77 3.64C22.15 1.97 20.2 0.840002 17.93 0.300002C17.27 0.140002 16.55 1.70339e-06 15.87 -0.0099983C13.59 -0.0599983 12.15 0.300002 11.3 0.560002C9.15 1.25 7.34 2.48 5.87 4.21C4.08 6.31 3.08 8.73 2.98 11.49C2.91 13.19 2.95 14.9 2.95 16.61C2.95 16.71 2.9 16.82 2.88 16.9C2.73 16.92 2.59 16.93 2.45 16.96C1.19 17.25 0.510002 18.11 0.510002 19.4C0.500002 20.82 0.500002 22.24 0.510002 23.66C0.520002 24.76 0.530002 25.86 0.570002 26.95C0.630002 28.54 1.03 30.06 1.67 31.52C2.52 33.47 3.78 35.13 5.41 36.5C7.03 37.85 8.87 38.79 10.93 39.29C11.99 39.55 13.06 39.66 14.14 39.66C14.15 39.66 14.15 39.66 14.16 39.66C14.17 39.66 14.17 39.66 14.18 39.66C15.25 39.66 16.33 39.55 17.39 39.29C19.45 38.79 21.29 37.85 22.91 36.5C24.54 35.14 25.8 33.47 26.65 31.52C27.29 30.07 27.69 28.55 27.75 26.95C27.79 25.85 27.8 24.75 27.81 23.66C27.82 22.24 27.82 20.81 27.81 19.39C27.78 18.1 27.11 17.24 25.85 16.95ZM23.2 23.63C23.19 24.68 23.18 25.73 23.14 26.78C23.1 27.71 22.87 28.66 22.42 29.68C21.85 30.98 21.04 32.06 19.94 32.98C18.85 33.89 17.65 34.5 16.29 34.83C15.62 34.99 14.92 35.07 14.13 35.07C13.37 35.07 12.67 34.99 12 34.83C10.64 34.5 9.44 33.89 8.35 32.98C7.25 32.06 6.44 30.98 5.87 29.68C5.42 28.66 5.19 27.71 5.15 26.78C5.11 25.73 5.1 24.68 5.09 23.63C5.09 22.9 5.08 22.17 5.08 21.43H9.9H12.02H14.14H16.26H18.38H23.2C23.2 22.17 23.2 22.9 23.2 23.63Z" fill="black"/>
<path d="M16.02 23.94C15.49 23.44 14.82 23.2 14.15 23.2C13.48 23.2 12.81 23.45 12.28 23.94C11.26 24.89 11.17 26.53 12.09 27.62C12.22 27.78 12.28 27.91 12.24 28.14C12.03 29.19 11.84 30.24 11.64 31.3C11.62 31.4 11.6 31.5 11.59 31.6C11.56 31.96 11.65 32.08 12.01 32.08C12.72 32.09 13.43 32.08 14.14 32.08C14.15 32.08 14.15 32.08 14.16 32.08C14.17 32.08 14.17 32.08 14.18 32.08C14.89 32.08 15.6 32.09 16.31 32.08C16.67 32.08 16.77 31.96 16.73 31.6C16.72 31.5 16.7 31.4 16.68 31.3C16.48 30.25 16.3 29.19 16.08 28.14C16.04 27.92 16.09 27.78 16.23 27.62C17.13 26.53 17.04 24.9 16.02 23.94Z" fill="black"/>
</svg>
