<svg width="94" height="16" viewBox="0 0 94 16" fill="none" xmlns="http://www.w3.org/2000/svg">
<path d="M29.87 1.54H26.3V13.75H35.42V10.76H29.87V1.54Z" fill="black"/>
<path d="M40.03 1.54H36.47V13.74H40.03V1.54Z" fill="black"/>
<path d="M48.96 6.13C48.75 6.1 45.34 5.47 45.34 5.47C44.98 5.4 44.79 5.35 44.79 5.09V4.94C44.79 4.57 44.86 4.56 45.22 4.56H50.78L50.8 1.54H45.36C42.2 1.54 41.13 2.48 41.13 4.64V5.8C41.13 8.14 42.28 8.29 44.72 8.73C44.86 8.75 47.47 9.22 47.67 9.27C47.96 9.32 47.98 9.53 47.98 9.69V10.04C47.98 10.56 47.69 10.72 46.95 10.72H41.28L41.26 13.75H47.41C50.18 13.75 51.28 13.02 51.52 11.37C51.55 11.14 51.57 10.88 51.57 10.61V9.21C51.57 7.43 51.19 6.55 48.96 6.13Z" fill="black"/>
<path d="M51.7 4.51H55.41V13.75H58.99V4.51H62.7V1.54H51.7V4.51Z" fill="black"/>
<path d="M70.94 1.52H66.94C64.55 1.52 63.35 3.04 63.35 4.8V10.48C63.35 12.22 64.55 13.76 66.94 13.76H70.94C73.33 13.76 74.55 12.23 74.55 10.48V4.8C74.55 3.04 73.33 1.52 70.94 1.52ZM70.97 9.84C70.97 10.43 70.7 10.83 69.96 10.83H67.93C67.17 10.83 66.92 10.43 66.92 9.84V5.39C66.92 4.8 67.18 4.43 67.93 4.43H69.96C70.7 4.43 70.97 4.8 70.97 5.39V9.84Z" fill="black"/>
<path d="M79.67 1.54H76.11V13.74H79.67V1.54Z" fill="black"/>
<path d="M84.95 1.54H81.38V13.75H90.5V10.76H84.95V1.54Z" fill="black"/>
<path d="M92.95 12.6C92.97 12.57 92.99 12.53 93 12.49C93.01 12.45 93.02 12.41 93.02 12.37C93.02 12.31 93.01 12.25 92.99 12.2C92.97 12.15 92.94 12.1 92.9 12.06C92.86 12.02 92.82 11.99 92.76 11.97C92.71 11.95 92.65 11.94 92.59 11.94H92.08C92.06 11.94 92.03 11.95 92.03 11.99V13.23C92.03 13.26 92.05 13.28 92.08 13.28H92.17C92.2 13.28 92.22 13.26 92.22 13.23V12.8H92.53C92.55 12.8 92.56 12.8 92.57 12.8C92.59 12.8 92.6 12.8 92.6 12.8L92.81 13.24C92.82 13.26 92.84 13.28 92.86 13.28H92.97C93.01 13.28 93.01 13.26 93.01 13.24V13.23L92.78 12.75C92.81 12.73 92.84 12.71 92.87 12.69C92.9 12.66 92.93 12.63 92.95 12.6ZM92.81 12.46C92.8 12.49 92.78 12.52 92.76 12.54C92.74 12.56 92.71 12.58 92.68 12.59C92.65 12.6 92.62 12.61 92.59 12.61H92.21V12.12H92.58C92.61 12.12 92.65 12.13 92.68 12.14C92.71 12.15 92.74 12.17 92.76 12.19C92.78 12.21 92.8 12.24 92.81 12.27C92.82 12.3 92.83 12.33 92.83 12.36C92.83 12.4 92.82 12.43 92.81 12.46Z" fill="black"/>
<path d="M93.57 12.31C93.54 12.21 93.5 12.12 93.46 12.04C93.41 11.96 93.35 11.88 93.28 11.81C93.21 11.74 93.13 11.68 93.05 11.63C92.97 11.58 92.87 11.54 92.78 11.52C92.59 11.47 92.37 11.47 92.17 11.52C92.07 11.55 91.98 11.59 91.9 11.63C91.82 11.68 91.74 11.74 91.67 11.81C91.6 11.88 91.54 11.96 91.49 12.04C91.44 12.12 91.4 12.22 91.38 12.31C91.35 12.41 91.34 12.51 91.34 12.61C91.34 12.71 91.35 12.82 91.38 12.91C91.41 13.01 91.45 13.1 91.49 13.18C91.54 13.26 91.6 13.34 91.67 13.41C91.74 13.48 91.82 13.54 91.9 13.59C91.98 13.64 92.07 13.68 92.17 13.7C92.27 13.73 92.37 13.74 92.47 13.74C92.57 13.74 92.68 13.73 92.77 13.7C92.87 13.67 92.96 13.63 93.04 13.59C93.12 13.54 93.2 13.48 93.27 13.41C93.34 13.34 93.4 13.26 93.45 13.18C93.5 13.1 93.54 13 93.56 12.91C93.59 12.81 93.6 12.71 93.6 12.61C93.61 12.51 93.6 12.4 93.57 12.31ZM93.39 12.86C93.37 12.94 93.34 13.02 93.29 13.09C93.25 13.16 93.2 13.22 93.14 13.28C93.08 13.34 93.02 13.39 92.95 13.43C92.88 13.47 92.8 13.5 92.72 13.53C92.56 13.58 92.37 13.57 92.21 13.53C92.13 13.51 92.05 13.47 91.98 13.43C91.91 13.39 91.84 13.34 91.79 13.28C91.73 13.22 91.68 13.16 91.64 13.09C91.6 13.02 91.57 12.94 91.54 12.86C91.52 12.78 91.51 12.69 91.51 12.61C91.51 12.52 91.52 12.44 91.54 12.36C91.56 12.28 91.6 12.2 91.64 12.13C91.68 12.06 91.73 12 91.79 11.94C91.85 11.88 91.91 11.83 91.98 11.79C92.05 11.75 92.13 11.72 92.21 11.69C92.29 11.67 92.38 11.66 92.46 11.66C92.59 11.66 92.72 11.69 92.83 11.74C92.94 11.79 93.05 11.86 93.13 11.94C93.22 12.03 93.28 12.13 93.33 12.24C93.38 12.35 93.41 12.48 93.41 12.61C93.42 12.69 93.41 12.78 93.39 12.86Z" fill="black"/>
<path d="M13.11 2.93L12.56 1.98L13.99 1.15L13.68 0.6C13.45 0.21 12.95 0 12.22 0H9.65002L7.96002 2.93L10.54 4.42L13.11 2.93Z" fill="black"/>
<path d="M2.94999 7.77L11.72 12.83L10.54 13.52L7.18999 11.59L5.02999 12.83L10.54 16.01L16.04 12.83L1.98999 4.72L2.94999 7.77Z" fill="black"/>
<path d="M0.5 0L1.46 3.05L10.54 8.29L19.61 3.05L20.57 0L10.54 5.79L0.5 0Z" fill="black"/>
<path d="M13.88 10.22L18.12 7.77L19.08 4.72L11.72 8.97L13.88 10.22Z" fill="black"/>
</svg>
