<svg width="30" height="44" viewBox="0 0 30 44" fill="none" xmlns="http://www.w3.org/2000/svg">
<path d="M29.767 10.6761L28.3182 15.6193H0.704546L2.15341 10.6761H29.767ZM16.8125 44L1.21591 24.9091L1.13068 21.3295H8.88636C10.9034 21.3295 12.6222 21.0455 14.0426 20.4773C15.4631 19.8949 16.5497 19.0284 17.3026 17.8778C18.0554 16.7131 18.4318 15.25 18.4318 13.4886C18.4318 10.8892 17.6506 8.85085 16.0881 7.37358C14.5256 5.8821 12.125 5.13636 8.88636 5.13636H0.704546L2.15341 0.363635H8.88636C12.3523 0.363635 15.1932 0.938919 17.4091 2.08949C19.6392 3.22585 21.2869 4.78835 22.3523 6.77699C23.4318 8.75142 23.9716 10.9886 23.9716 13.4886C23.9716 15.7472 23.4744 17.8281 22.4801 19.7315C21.5 21.6207 19.9233 23.1406 17.75 24.2912C15.5909 25.4418 12.7358 26.017 9.18466 26.017H9.05682L23.4602 43.6591V44H16.8125ZM29.767 0.363635L28.3182 5.30682L6.58523 5.13636L8.03409 0.363635H29.767Z" fill="black"/>
</svg>
