<?xml version="1.0" encoding="utf-8"?>
<!-- Generator: Adobe Illustrator 26.2.1, SVG Export Plug-In . SVG Version: 6.00 Build 0)  -->
<svg version="1.1" id="Capa_1" xmlns="http://www.w3.org/2000/svg" xmlns:xlink="http://www.w3.org/1999/xlink" x="0px" y="0px"
	 viewBox="0 0 300.38 206.59" style="enable-background:new 0 0 300.38 206.59;" xml:space="preserve">
<g>
	<path d="M12.41,125.12c0-1.94,0-3.71,0-5.47c0-1.4-0.11-2.82,0.03-4.21c0.18-1.79-0.2-2.76-2.22-3.23
		c-2.53-0.59-4.08-3.46-3.88-6.23c0.22-2.89,2.18-5.22,4.84-5.74c0.31-0.06,0.63-0.09,1.2-0.17c0-20.7,0-41.39,0-62.37
		c-1.71,0-3.36,0-5.01,0c-5,0-7.38-2.35-7.38-7.31c0-7.67,0-15.34,0-23.01C0,2.41,2.39,0,7.32,0c32.47,0,64.93,0,97.4,0
		c20.32,0,40.64-0.01,60.96,0.01c2.16,0,4.33,0.06,6.47,0.32c3.35,0.41,5.77,3.44,5.53,6.68c-0.25,3.39-3.03,5.9-6.53,5.89
		c-40.57-0.1-81.14-0.21-121.71-0.3c-11.56-0.03-23.12,0-34.68,0c-2.13,0-2.13,0.01-2.13,2.15c0,3.34,0,6.68,0,10.16
		c73.33,0,146.5,0,219.67,0c0.03-0.07,0.05-0.13,0.08-0.2c-2.86-0.83-5.72-1.68-8.59-2.48c-1.51-0.42-3.04-0.73-4.55-1.16
		c-3.44-0.99-5.49-4.36-4.67-7.6c0.87-3.43,4.18-5.57,7.72-4.68c9.05,2.26,18.13,4.54,26.45,8.91c2.78,1.46,5.47,3.22,7.83,5.27
		c2.62,2.27,3.83,5.48,3.78,8.98c-0.04,3.1-2.84,5.63-6.12,5.75c-0.91,0.03-1.81,0.01-2.86,0.01c0.46,2.95,0.91,5.7,1.32,8.46
		c1.06,6.99,2.1,13.98,3.17,20.96c0.89,5.81,1.81,11.62,2.71,17.43c1.03,6.66,2.12,13.32,3.04,20c0.21,1.52,0.82,1.81,2.17,1.78
		c3.62-0.08,7.24-0.04,10.86-0.02c4.4,0.02,6.92,2.54,6.93,6.95c0.01,6.16,0.06,12.32-0.04,18.47c-0.02,1.46,0.44,2.2,1.74,2.84
		c7.16,3.54,12.25,9.07,15.21,16.48c0.74,1.84,1.22,3.8,1.66,5.74c0.66,2.88-0.3,5.19-2.74,6.88c-0.26,0.18-0.49,0.4-0.78,0.65
		c2.02,3.74,3.27,7.65,3.64,11.85c0.97,11.11-5.33,22.37-15.31,27.29c-14.59,7.2-31.51,1.39-38.44-13.32
		c-1.8-3.82-2.97-7.87-2.44-12.22c0.16-1.32,0.3-2.64,0.37-3.97c0.02-0.36-0.24-0.74-0.37-1.11c-0.35,0.22-0.85,0.35-1.03,0.67
		c-2,3.61-3.87,7.3-5.95,10.86c-1.47,2.52-4.03,3.32-6.78,3.38c-2.57,0.06-5.15-0.11-7.73-0.13c-1.13-0.01-2.26,0.14-3.38,0.14
		c-35.17,0.01-70.34,0.01-105.51,0.01c-4.31,0-5.94-1.22-7.36-5.34c-0.14-0.4-0.8-0.87-1.22-0.87c-8.37-0.05-16.75-0.02-25.12-0.06
		c-1.09,0-1.16,0.63-1.31,1.42c-1.15,6.17-3.82,11.56-8.46,15.84c-7.25,6.67-15.77,9.27-25.41,7.04
		c-11.83-2.73-18.91-10.35-21.69-22.08c-0.52-2.2-0.47-2.21-2.79-2.21c-4.38,0-8.75,0.01-13.13,0C2.46,181.51,0,179.08,0,174.38
		c0-14.04,0-28.09,0-42.13c0-4.72,2.44-7.12,7.21-7.13C8.88,125.12,10.54,125.12,12.41,125.12z M144.02,37.74c0,0.92,0,1.66,0,2.4
		c0,18.96,0,37.91,0,56.87c0,8.8,0.03,17.61-0.03,26.41c-0.01,1.35,0.4,1.76,1.74,1.72c3.35-0.09,6.7-0.03,10.05-0.03
		c6.48,0,12.97-0.01,19.45,0.01c2.48,0.01,4.33,1.13,5.5,3.33c1.18,2.21,1.04,4.39-0.28,6.45c-1.38,2.15-3.48,2.86-5.98,2.85
		c-9.29-0.04-18.58-0.02-27.88-0.01c-2.86,0-2.57-0.22-2.58,2.65c-0.01,2.65-0.01,5.29,0,7.94c0,0.57,0.06,1.14,0.1,1.75
		c22.94,0,45.69,0,68.56,0c0-0.83,0-1.47,0-2.11c0-8.86-0.22-17.72,0.1-26.57c0.14-3.73-0.73-6.06-4.46-6.97
		c-0.35-0.09-0.66-0.36-1-0.53c-2.25-1.12-4.5-2.22-6.92-3.42c-0.07,1.06-0.09,1.86-0.17,2.66c-0.36,3.53-3.08,5.94-6.55,5.81
		c-3.43-0.13-6.01-2.78-6.03-6.34c-0.03-8.32-0.03-16.63,0.02-24.95c0.01-0.99,0.26-2.06,0.69-2.95c1.21-2.5,4.13-3.85,6.78-3.28
		c3,0.64,4.97,2.87,5.11,6.04c0.11,2.48,0.07,4.97,0.03,7.45c-0.02,0.93,0.27,1.48,1.14,1.89c1.86,0.86,3.66,1.84,5.5,2.75
		c1.85,0.92,3.71,1.81,5.72,2.79c0-21.69,0-43.1,0-64.62C189.77,37.74,167.05,37.74,144.02,37.74z M25.12,37.66c0,0.84,0,1.42,0,2
		c0,19.44,0,38.89,0,58.33c0,2.14,0,2.14,2.1,2.14c19.91,0,39.82,0,59.72,0c14.05,0,28.09,0,42.14,0c2.23,0,2.23,0,2.23-2.18
		c0-19.39,0-38.78,0-58.17c0-0.63,0-1.26,0-2.13C95.86,37.66,60.63,37.66,25.12,37.66z M59.53,137.75
		c-15.01,0-30.02,0.01-45.04-0.03c-1.37,0-1.89,0.34-1.88,1.81c0.06,9.23,0.05,18.46,0.01,27.69c-0.01,1.29,0.43,1.69,1.69,1.65
		c2.64-0.08,5.3-0.12,7.94,0.01c1.55,0.08,2.22-0.47,2.8-1.9c5.12-12.55,20.2-19.73,33.19-15.89c8.76,2.59,14.97,8.07,18.61,16.44
		c0.38,0.89,0.78,1.42,1.85,1.35c1.37-0.09,2.76-0.03,4.14-0.03c3.26,0,6.52,0,9.78,0c3.94,0,7.89-0.06,11.83,0.03
		c1.47,0.03,1.93-0.38,1.92-1.9c-0.07-9.01-0.03-18.03-0.04-27.05c0-2.18-0.01-2.19-2.24-2.19
		C89.23,137.75,74.38,137.76,59.53,137.75z M78.13,125.12c17.12,0,34.23-0.02,51.35,0.03c1.38,0,1.92-0.29,1.86-1.78
		c-0.11-2.96-0.08-5.94-0.01-8.91c0.03-1.2-0.25-1.71-1.61-1.7c-21.6,0.04-43.19,0.02-64.79,0.02c-2.44,0-4.87,0.01-7.31,0.01
		c-10.21,0-20.41,0.02-30.62-0.03c-1.42-0.01-2.01,0.29-1.93,1.86c0.13,2.85,0.13,5.72,0,8.58c-0.07,1.62,0.52,1.95,2.02,1.94
		C44.12,125.1,61.12,125.12,78.13,125.12z M225.35,106.34c8.03,0,15.79,0,23.76,0c-3.55-23.06-7.05-45.8-10.58-68.74
		c-2.31,0-4.45,0-6.6,0c-2.18,0-4.36,0-6.58,0C225.35,60.65,225.35,83.36,225.35,106.34z M212.61,162.92c-22.87,0-45.63,0-68.58,0
		c0,3.55,0.07,6.99-0.03,10.43c-0.04,1.45,0.44,1.81,1.84,1.81c21.66-0.04,43.32-0.03,64.99-0.03c0.57,0,1.15-0.06,1.79-0.1
		C212.61,170.95,212.61,167.02,212.61,162.92z M225.46,174.96c1.44,0.41,2.33,0.15,3.06-1.26c2.2-4.26,4.58-8.43,6.88-12.64
		c4.31-7.9,8.61-15.8,12.93-23.73c-4.22-5.45-5.57-11.47-3.45-18.2c-6.63,0-13.01,0-19.42,0
		C225.46,137.83,225.46,156.38,225.46,174.96z M66.37,178.81c0.16-8.57-6.61-15.81-14.94-15.99c-8.85-0.19-15.99,6.52-16.14,15.27
		c-0.14,7.82,5.76,16.2,16.55,15.86C59.07,193.72,65.98,188.18,66.37,178.81z M272.17,194.03c1.37-0.25,2.78-0.4,4.11-0.77
		c5.65-1.6,9.26-5.32,10.83-10.93c1.58-5.62,0-10.53-3.85-14.76c-0.38-0.42-1.26-0.69-1.83-0.6c-7.24,1.16-14.46,2.37-21.68,3.66
		c-0.64,0.11-1.43,0.75-1.71,1.34C253.33,182.22,260.86,193.9,272.17,194.03z M131.31,156.49c0-5.72-0.03-11.44,0.02-17.16
		c0.01-1.19-0.36-1.62-1.57-1.59c-3.08,0.07-6.15,0.07-9.23,0c-1.24-0.03-1.55,0.45-1.54,1.61c0.03,11.44,0.03,22.88,0,34.32
		c0,1.12,0.34,1.51,1.48,1.49c3.08-0.06,6.15-0.08,9.23,0.01c1.31,0.04,1.66-0.43,1.65-1.68
		C131.28,167.82,131.31,162.15,131.31,156.49z M285.49,153.36c-4.15-8.05-14.35-11.6-23.2-8.08c-3.2,1.27-5.93,3.13-7.42,6.52
		c-1.06,2.42-2.5,4.67-3.77,6.99c0.1,0.13,0.19,0.26,0.29,0.39C262.74,157.23,274.1,155.3,285.49,153.36z M268.92,125.27
		c0-1.67-0.02-3.34,0.01-5.01c0.02-0.84-0.21-1.31-1.18-1.28c-1.72,0.05-3.46-0.06-5.18,0.05c-3.39,0.21-5.96,2.85-6.01,6.05
		c-0.05,3.29,2.49,6,5.97,6.24c1.72,0.12,3.45,0.01,5.18,0.06c0.92,0.03,1.24-0.36,1.22-1.24
		C268.89,128.5,268.92,126.88,268.92,125.27z"/>
	<path d="M189.89,9.71c0.06-3.44,2.96-6.26,6.39-6.2c3.42,0.06,6.27,2.98,6.23,6.38c-0.04,3.58-2.91,6.42-6.4,6.33
		C192.52,16.13,189.83,13.31,189.89,9.71z"/>
</g>
</svg>
