<?xml version="1.0" encoding="utf-8"?>
<!-- Generator: Adobe Illustrator 25.3.1, SVG Export Plug-In . SVG Version: 6.00 Build 0)  -->
<svg version="1.1" id="Capa_1" xmlns="http://www.w3.org/2000/svg" xmlns:xlink="http://www.w3.org/1999/xlink" x="0px" y="0px"
	 viewBox="0 0 38.62 21.73" style="enable-background:new 0 0 38.62 21.73;" xml:space="preserve">
<g>
	<g>
		<path d="M21.07,1.61c0-0.55,0-1.06,0-1.59c0.08,0,0.15-0.01,0.23-0.01c1.4,0,2.8,0,4.2-0.01c0.19,0,0.28,0.07,0.36,0.23
			c1.65,3.31,3.3,6.61,4.95,9.91c0.04,0.07,0.08,0.14,0.11,0.21c3.34-1.06,6.49,0.89,7.41,3.7c0.91,2.77-0.35,5.81-2.96,7.08
			c-2.66,1.29-5.81,0.44-7.44-2.01c-1.66-2.49-1.2-6.09,1.56-8.04c-0.26-0.52-0.52-1.04-0.78-1.57C27.45,7,26.2,4.49,24.94,1.98
			c-0.02-0.04-0.05-0.09-0.07-0.14c-0.06-0.2-0.19-0.25-0.4-0.25c-1.04,0.01-2.08,0-3.12,0C21.27,1.61,21.18,1.61,21.07,1.61z
			 M30.22,12.55c-1.67,1.24-2.25,3.73-0.97,5.68c1.26,1.91,3.81,2.47,5.74,1.28c1.96-1.21,2.6-3.73,1.45-5.72
			c-1.18-2.04-3.53-2.42-4.79-1.93c0.61,1.22,1.22,2.45,1.84,3.68c-0.49,0.24-0.95,0.47-1.42,0.71
			C31.45,15.01,30.84,13.79,30.22,12.55z"/>
	</g>
	<g>
		<path d="M0.12,15.89c0-3.21,2.62-5.83,5.82-5.82c3.25,0,5.85,2.61,5.84,5.85c-0.01,3.22-2.61,5.81-5.83,5.81
			C2.72,21.73,0.12,19.12,0.12,15.89z M10.19,15.9c0-2.33-1.89-4.23-4.22-4.23c-2.34,0-4.25,1.89-4.25,4.23
			c0,2.33,1.89,4.23,4.22,4.23C8.29,20.13,10.18,18.25,10.19,15.9z"/>
	</g>
	<g>
		<path d="M6.88,8.85c-1.73,0-3.47,0.01-5.2-0.01c-0.28,0-0.59-0.07-0.85-0.18C0.27,8.41-0.02,7.98,0,7.35
			c0.05-1.56,1.09-2.91,2.54-3.24c0.22-0.05,0.45-0.07,0.67-0.07c3.23,0,6.47,0,9.7-0.01c0.86,0,1.55,0.29,1.97,1.06
			c0.44,0.79,0.33,1.58-0.16,2.31c-0.63,0.95-1.55,1.45-2.69,1.46C10.31,8.86,8.6,8.85,6.88,8.85z M1.63,7.25c0.1,0,0.19,0,0.27,0
			c3.33,0,6.65,0,9.98,0c0.09,0,0.19,0,0.28-0.01c0.54-0.06,0.98-0.3,1.26-0.77c0.3-0.49,0.05-0.86-0.47-0.86
			C9.75,5.64,6.56,5.63,3.36,5.63C2.4,5.63,1.72,6.25,1.63,7.25z"/>
	</g>
	<g>
		<path d="M22.33,16.89c-2.82,0-5.63,0-8.45,0c-0.68-2.39-1.37-4.79-2.06-7.21c4.19,0,8.37,0,12.58,0
			C23.71,12.08,23.02,14.48,22.33,16.89z M15.08,15.28c0.06,0.01,0.08,0.02,0.11,0.02c1.92,0,3.84,0,5.76,0.01
			c0.15,0,0.2-0.07,0.23-0.19c0.2-0.71,0.4-1.42,0.61-2.13c0.16-0.56,0.32-1.12,0.49-1.7c-2.79,0-5.55,0-8.34,0
			C14.32,12.62,14.7,13.95,15.08,15.28z"/>
	</g>
	<g>
		<path d="M20.31,8.85c-0.82,0-1.64,0.02-2.46-0.01c-0.47-0.02-0.96-0.06-1.41-0.2c-1.04-0.31-1.51-1.37-1.11-2.38
			c0.3-0.76,0.86-1.29,1.52-1.73c1.33-0.91,2.82-1.37,4.43-1.46c0.9-0.05,1.8-0.07,2.66,0.26c0.4,0.15,0.81,0.34,1.14,0.61
			c1.01,0.82,1.22,1.81,0.76,2.97c-0.5,1.24-1.72,1.97-2.91,1.94C22.05,8.83,21.18,8.84,20.31,8.85
			C20.31,8.84,20.31,8.85,20.31,8.85z M20.3,7.25C20.3,7.25,20.3,7.25,20.3,7.25c0.88,0,1.76,0,2.64,0c0.69,0,1.26-0.43,1.46-1.09
			c0.1-0.33,0.04-0.61-0.2-0.85c-0.33-0.34-0.75-0.5-1.2-0.58c-0.88-0.15-1.76-0.11-2.62,0.06c-1.11,0.21-2.14,0.61-3.01,1.36
			c-0.19,0.17-0.37,0.37-0.51,0.58c-0.15,0.22-0.1,0.37,0.16,0.43c0.26,0.06,0.53,0.09,0.79,0.09C18.65,7.26,19.48,7.25,20.3,7.25z"
			/>
	</g>
	<g>
		<path d="M29.81,6.54c-0.38-0.76-0.74-1.49-1.12-2.24c0.5-0.25,0.98-0.49,1.49-0.75c0.37,0.75,0.74,1.48,1.12,2.24
			C30.81,6.05,30.32,6.29,29.81,6.54z"/>
	</g>
</g>
</svg>
