<svg width="32" height="34" viewBox="0 0 32 34" fill="none" xmlns="http://www.w3.org/2000/svg">
<g clip-path="url(#clip0_5_188)">
<path d="M15.29 33.21C14.22 33.21 13.22 32.79 12.47 32.04C11.72 31.29 11.3 30.28 11.3 29.22C11.3 28.16 11.72 27.15 12.47 26.4L18.27 20.6H4.49C2.29 20.59 0.5 18.8 0.5 16.6C0.5 14.4 2.29 12.61 4.49 12.61H18.27L12.47 6.81C10.91 5.25 10.91 2.72 12.47 1.17C14.03 -0.39 16.56 -0.39 18.11 1.17L30.73 13.79C31.48 14.54 31.9 15.55 31.9 16.61C31.9 17.67 31.48 18.68 30.73 19.43L18.11 32.04C17.36 32.8 16.36 33.21 15.29 33.21ZM4.49 14.39C3.27 14.39 2.28 15.38 2.28 16.6C2.28 17.82 3.27 18.81 4.49 18.81H22.56L13.72 27.65C12.86 28.51 12.86 29.92 13.72 30.78C14.56 31.62 16.01 31.62 16.85 30.78L29.47 18.16C29.89 17.74 30.12 17.19 30.12 16.6C30.12 16.01 29.89 15.45 29.47 15.04L16.85 2.42C15.99 1.56 14.58 1.56 13.72 2.42C12.86 3.28 12.86 4.69 13.72 5.55L22.56 14.39H4.49Z" fill="black"/>
</g>
<defs>
<clipPath id="clip0_5_188">
<rect width="31.4" height="33.21" fill="white" transform="translate(0.5)"/>
</clipPath>
</defs>
</svg>
