<svg width="50" height="42" viewBox="0 0 50 42" fill="none" xmlns="http://www.w3.org/2000/svg">
<path d="M50 16.554C41.2688 7.82273 29.1041 4.63947 17.8263 6.9587L23.5562 12.6886C31.4461 12.302 39.4497 15.076 45.4525 21.1015L50 16.554ZM40.905 25.649C37.9718 22.7159 34.4475 20.8059 30.6958 19.8282L38.7221 27.8546L40.905 25.649ZM2.27376 3.02509L9.25421 9.96007C5.91178 11.5972 2.77399 13.78 0 16.554L4.52478 21.1015C7.34425 18.282 10.5957 16.1902 14.0746 14.8032L19.1678 19.8964C15.4843 20.8514 11.9827 22.7613 9.09504 25.649V25.6718L13.6198 30.1965C16.7121 27.1042 20.7594 25.5581 24.8067 25.5126L40.8822 41.5653L43.7699 38.7004L5.20691 0.160156L2.27376 3.02509ZM18.1901 34.7441L25.0114 41.5653L31.8327 34.7441C28.0809 30.9696 21.9645 30.9696 18.1901 34.7441Z" fill="black"/>
</svg>
