<?xml version="1.0" encoding="utf-8"?>
<!-- Generator: Adobe Illustrator 26.2.1, SVG Export Plug-In . SVG Version: 6.00 Build 0)  -->
<svg version="1.1" id="Capa_1" xmlns="http://www.w3.org/2000/svg" xmlns:xlink="http://www.w3.org/1999/xlink" x="0px" y="0px"
	 viewBox="0 0 511.18 340.98" style="enable-background:new 0 0 511.18 340.98;" xml:space="preserve">
<g>
	<path d="M511.18,244.34c-0.76,4.06-1.42,8.15-2.3,12.18c-9.65,44.19-44.93,76.96-89.9,83.35c-5.41,0.77-10.94,1.02-16.42,1.02
		c-90.82,0.06-181.64-0.08-272.45,0.09c-58.93,0.11-103.86-36.41-121.54-82.06c-28.83-74.45,18.04-157.85,96.74-171.31
		c6.34-1.08,9.84-3.62,13.17-9.1C144.28,36,181.83,10,230.94,2.04c83.12-13.47,162.43,41.02,180.46,123.24
		c0.21,0.96,0.54,1.9,0.89,3.13c5.03,0.8,10.15,1.35,15.14,2.46c47.89,10.6,78.46,49.85,82.91,90.67c0.1,0.96,0.56,1.89,0.84,2.83
		C511.18,231.03,511.18,237.68,511.18,244.34z M377.02,168.92c-0.29-1.03-0.51-1.65-0.64-2.28c-2.3-11.23-4.39-22.51-6.93-33.68
		c-14.13-62.1-77.28-101.73-139.3-87.39c-33.75,7.81-59.12,27.05-76.32,57.05c-3.88,6.77-7.44,13.73-10.99,20.69
		c-1.12,2.19-2.55,3.08-5,3.27c-7.29,0.57-14.59,1.19-21.83,2.2c-50.2,6.99-83.29,55.23-70.57,105.67
		c9.54,37.82,43.42,63.73,82.94,63.77c91.82,0.1,183.65,0.04,275.47-0.01c3.64,0,7.31-0.34,10.92-0.87
		c27.97-4.06,50.98-28.36,53.49-56.05c3.01-33.14-17.84-58.42-42.91-66.85c-9.12-3.07-18.61-3.29-28.04-4.02
		C390.53,169.91,383.76,169.42,377.02,168.92z"/>
	<path d="M339.29,191.71c-17.31,0-34.71,0-52.58,0c0,21.3,0,42.18,0,63.46c-20.79,0-41.11,0-61.88,0c0-21.01,0-41.91,0-63.4
		c-17.95,0-35.48,0-52.78,0c28.13-28.13,56.06-56.07,83.67-83.68C283.07,135.45,311,163.4,339.29,191.71z"/>
</g>
</svg>
