<svg width="28" height="27" viewBox="0 0 28 27" fill="none" xmlns="http://www.w3.org/2000/svg">
<path d="M0.5 25.9C0.64 25.32 0.79 24.74 0.92 24.15C1.18 23.02 1.43 21.89 1.71 20.76C1.76 20.57 1.87 20.37 2.01 20.23C8.62 13.62 15.24 7.02999 21.84 0.419993C22.52 -0.260007 23.48 -0.0200069 24.01 0.489993C25.07 1.49999 26.1 2.53999 27.12 3.57999C27.49 3.94999 27.5 4.35999 27.21 4.79999C27.09 4.98999 26.94 5.15999 26.78 5.31999C20.16 11.95 13.55 18.57 6.94 25.2C6.69 25.45 6.42 25.61 6.07 25.7C4.62 26.07 3.17 26.46 1.72 26.84C1.68 26.85 1.65 26.88 1.61 26.9C1.45 26.9 1.29 26.9 1.14 26.9C0.82 26.78 0.65 26.54 0.5 26.27C0.5 26.14 0.5 26.02 0.5 25.9ZM19.86 4.99999C14.81 10.04 9.8 15.04 4.78 20.04C5.58 20.83 6.38 21.61 7.1 22.32C12.12 17.34 17.15 12.35 22.15 7.37999C21.37 6.56999 20.61 5.77999 19.86 4.99999ZM23.44 6.05999C24.06 5.45999 24.67 4.86999 25.25 4.30999C24.46 3.51999 23.67 2.72999 22.92 1.97999C22.34 2.55999 21.74 3.15999 21.17 3.72999C21.92 4.49999 22.69 5.28999 23.44 6.05999ZM2.51 24.66C3.58 24.39 4.59 24.14 5.59 23.89C5.69 23.87 5.76 23.77 5.81 23.74C5.01 22.94 4.22 22.15 3.4 21.33C3.05 22.4 2.84 23.51 2.51 24.66Z" fill="black"/>
<path d="M0.5 26.27C0.65 26.54 0.82 26.79 1.13 26.9C0.92 26.9 0.71 26.9 0.5 26.9C0.5 26.69 0.5 26.48 0.5 26.27Z" fill="black"/>
<path d="M23.44 6.06C22.69 5.29 21.92 4.5 21.17 3.73C21.74 3.16 22.34 2.56 22.92 1.98C23.67 2.73 24.46 3.51 25.25 4.31C24.67 4.87 24.06 5.45 23.44 6.06Z" fill="black"/>
<path d="M2.51001 24.66C2.83001 23.52 3.05001 22.4 3.40001 21.33C4.22001 22.15 5.01001 22.93 5.81001 23.74C5.76001 23.77 5.68001 23.87 5.59001 23.89C4.59001 24.14 3.59001 24.39 2.51001 24.66Z" fill="black"/>
</svg>
