<?xml version="1.0" encoding="utf-8"?>
<!-- Generator: Adobe Illustrator 26.2.1, SVG Export Plug-In . SVG Version: 6.00 Build 0)  -->
<svg version="1.1" xmlns="http://www.w3.org/2000/svg" xmlns:xlink="http://www.w3.org/1999/xlink" x="0px" y="0px"
	 viewBox="0 0 305.56 305.56" xml:space="preserve">
<style type="text/css">
	.circulorechazadost0{fill:#ADADAD;}
	.circulorechazadost1{fill:#E70016;}
</style>
<g>
	<path class="circulorechazadost0" d="M152.78,305.56C68.54,305.56,0,237.02,0,152.78S68.54,0,152.78,0s152.78,68.54,152.78,152.78
		S237.02,305.56,152.78,305.56z M152.78,15.4C77.03,15.4,15.4,77.03,15.4,152.78s61.63,137.38,137.37,137.38
		s137.37-61.63,137.37-137.38S228.53,15.4,152.78,15.4z"/>
	<path class="circulorechazadost1" d="M196.6,174.66l-22.03-21.93l21.93-22.03c6-6.03,5.98-15.78-0.05-21.78c-6.03-6-15.78-5.98-21.78,0.05
		L152.73,131l-22.03-21.93c-6.03-6-15.78-5.98-21.78,0.05s-5.98,15.78,0.05,21.78l22.03,21.93l-21.93,22.03
		c-6,6.03-5.98,15.78,0.05,21.78c3.01,2.99,6.94,4.48,10.87,4.48c3.95,0,7.91-1.51,10.92-4.54l21.93-22.03l22.03,21.93
		c3.01,2.99,6.94,4.49,10.87,4.49c3.95,0,7.91-1.51,10.92-4.54C202.65,190.41,202.62,180.66,196.6,174.66z"/>
</g>
</svg>
