<svg width="23" height="23" viewBox="0 0 23 23" fill="none" xmlns="http://www.w3.org/2000/svg">
<path d="M8.77998 9.13C10.07 11.14 11.61 12.67 13.63 13.97C13.83 13.71 14.01 13.41 14.25 13.18C15.12 12.34 16.15 12.13 17.3 12.43C18.27 12.69 19.25 12.94 20.23 13.17C21.62 13.49 22.57 14.43 22.67 15.84C22.76 17.13 22.76 18.45 22.65 19.74C22.51 21.33 20.94 22.48 19.37 22.3C15.85 21.88 12.6 20.71 9.67998 18.69C4.84998 15.33 1.89998 10.75 0.73998 4.99C0.61998 4.39 0.52998 3.78 0.49998 3.17C0.42998 1.46 1.62998 0.129998 3.33998 0.0399976C4.43998 -0.0200024 5.54998 -0.0100024 6.64998 0.0299976C8.28998 0.0999976 9.36998 1.14 9.64998 2.77C9.77998 3.56 9.94998 4.34 10.2 5.09C10.67 6.49 10.44 7.68 9.35998 8.69C9.18998 8.85 8.98998 8.97 8.77998 9.13ZM20.7 17.72C20.7 17.21 20.71 16.71 20.7 16.2C20.69 15.62 20.38 15.28 19.81 15.14C18.8 14.89 17.78 14.66 16.77 14.37C16.29 14.23 15.92 14.33 15.59 14.67C15.21 15.05 14.83 15.44 14.44 15.82C14.02 16.22 13.56 16.27 13.06 15.98C10.42 14.43 8.31998 12.34 6.76998 9.7C6.44998 9.16 6.49998 8.73 6.92998 8.28C7.30998 7.89 7.69998 7.51 8.07998 7.12C8.35998 6.84 8.49998 6.5 8.39998 6.09C8.11998 5.03 7.84998 3.96 7.57998 2.9C7.43998 2.35 7.10998 2.04 6.55998 2.03C5.54998 2.01 4.53998 2.01 3.51998 2.03C2.85998 2.05 2.41998 2.58 2.49998 3.23C2.73998 5.14 3.19998 6.99 3.98998 8.75C6.21998 13.72 9.87998 17.19 14.95 19.17C16.37 19.72 17.84 20.08 19.35 20.24C20.3 20.34 20.69 19.96 20.7 19.02C20.7 18.59 20.7 18.15 20.7 17.72Z" fill="black"/>
</svg>
