<svg width="33" height="32" viewBox="0 0 33 32" fill="none" xmlns="http://www.w3.org/2000/svg">
<g clip-path="url(#clip0_5_218)">
<path d="M21.61 1.5H28.77C29.79 1.5 30.61 2.33 30.61 3.34V10.42H32.11V3.34C32.11 1.49 30.61 0 28.77 0H21.61V1.5Z" fill="black"/>
<path d="M2 10.42V3.34C2 2.32 2.83 1.5 3.84 1.5H11V0H3.84C2 0 0.5 1.5 0.5 3.34V10.42H2Z" fill="black"/>
<path d="M30.61 21.04V28.27C30.61 29.29 29.78 30.11 28.77 30.11H21.61V31.61H28.77C30.62 31.61 32.11 30.11 32.11 28.27V21.04H30.61Z" fill="black"/>
<path d="M11 30.11H3.84C2.82 30.11 2 29.28 2 28.27V21.04H0.5V28.27C0.5 30.12 2 31.61 3.84 31.61H11V30.11Z" fill="black"/>
<path d="M13.18 6.87001C13.37 6.87001 13.52 7.02001 13.52 7.21001V12.65C13.52 12.84 13.37 12.99 13.18 12.99H7.75C7.56 12.99 7.41 12.84 7.41 12.65V7.21001C7.41 7.02001 7.56 6.87001 7.75 6.87001H13.18ZM13.18 5.21001H7.75C6.65 5.21001 5.75 6.10001 5.75 7.21001V12.65C5.75 13.75 6.64 14.65 7.75 14.65H13.19C14.29 14.65 15.19 13.76 15.19 12.65V7.21001C15.18 6.10001 14.28 5.21001 13.18 5.21001Z" fill="black"/>
<path d="M24.98 6.87001C25.17 6.87001 25.32 7.02001 25.32 7.21001V12.65C25.32 12.84 25.17 12.99 24.98 12.99H19.54C19.35 12.99 19.2 12.84 19.2 12.65V7.21001C19.2 7.02001 19.35 6.87001 19.54 6.87001H24.98ZM24.98 5.21001H19.54C18.44 5.21001 17.54 6.10001 17.54 7.21001V12.65C17.54 13.75 18.43 14.65 19.54 14.65H24.98C26.08 14.65 26.98 13.76 26.98 12.65V7.21001C26.98 6.10001 26.08 5.21001 24.98 5.21001Z" fill="black"/>
<path d="M13.18 18.56C13.37 18.56 13.52 18.71 13.52 18.9V24.34C13.52 24.53 13.37 24.68 13.18 24.68H7.75C7.56 24.68 7.41 24.53 7.41 24.34V18.9C7.41 18.71 7.56 18.56 7.75 18.56H13.18ZM13.18 16.9H7.75C6.65 16.9 5.75 17.79 5.75 18.9V24.34C5.75 25.44 6.64 26.34 7.75 26.34H13.19C14.29 26.34 15.19 25.45 15.19 24.34V18.9C15.18 17.79 14.28 16.9 13.18 16.9Z" fill="black"/>
<path d="M24.98 26.33H19.54C18.44 26.33 17.54 25.44 17.54 24.33V18.89C17.54 17.79 18.43 16.89 19.54 16.89H24.98C26.08 16.89 26.98 17.78 26.98 18.89V24.33C26.98 25.43 26.08 26.33 24.98 26.33Z" fill="black"/>
</g>
<defs>
<clipPath id="clip0_5_218">
<rect width="31.61" height="31.61" fill="white" transform="translate(0.5)"/>
</clipPath>
</defs>
</svg>
