<?xml version="1.0" encoding="utf-8"?>
<!-- Generator: Adobe Illustrator 25.3.1, SVG Export Plug-In . SVG Version: 6.00 Build 0)  -->
<svg version="1.1" xmlns="http://www.w3.org/2000/svg" xmlns:xlink="http://www.w3.org/1999/xlink" x="0px" y="0px"
	 viewBox="0 0 139.02 146.36" style="enable-background:new 0 0 139.02 146.36;" xml:space="preserve">
<style type="text/css">
	.st0{display:none;}
	.st1{display:inline;fill:url(#SVGID_1_);}
	.st2{fill:#F3F2F2;}
	.st3{fill:none;stroke:#E8E7E7;stroke-miterlimit:10;}
	.st4{fill:#E20D18;}
	.st5{fill:#E30613;}
	.st6{fill:none;}
	.st7{fill:#BF1C1D;}
	.st8{fill:none;stroke:#FFFFFF;stroke-width:1.1979;stroke-linecap:round;stroke-linejoin:round;stroke-miterlimit:10;}
	.st9{fill:#FFFFFF;}
	.st10{fill:none;stroke:#FFFFFF;stroke-width:1.1468;stroke-linecap:round;stroke-linejoin:round;stroke-miterlimit:10;}
	.st11{fill:none;stroke:#E5B466;stroke-width:1.1468;stroke-linecap:round;stroke-linejoin:round;stroke-miterlimit:10;}
	.st12{fill:#E5B466;}
	.st13{fill:none;stroke:#000000;stroke-width:0.5;stroke-miterlimit:10;}
	.st14{fill:none;stroke:#AAAAA9;stroke-width:0.25;stroke-miterlimit:10;}
	.st15{fill:none;stroke:#B0B0B0;stroke-width:2;stroke-miterlimit:10;}
	.st16{clip-path:url(#SVGID_7_);}
	.st17{fill:#818282;}
	.st18{fill:none;stroke:#E20D18;stroke-width:0.7207;stroke-miterlimit:10;}
	.st19{opacity:0.7;fill:#F3F2F2;}
	.st20{fill:none;stroke:#818282;stroke-width:0.5;stroke-miterlimit:10;}
	.st21{fill:#E8E7E7;}
	.st22{fill:none;stroke:#CECECD;stroke-width:0.5;stroke-miterlimit:10;}
	.st23{fill:#A08449;}
	.st24{fill:none;stroke:#000000;stroke-width:0.3197;stroke-miterlimit:10;}
	.st25{fill:#E6B566;stroke:#FFFFFF;stroke-width:0.1774;stroke-miterlimit:10;}
	.st26{fill:#E6B566;stroke:#FFFFFF;stroke-width:0.1781;stroke-miterlimit:10;}
	.st27{fill:#E6B566;stroke:#FFFFFF;stroke-width:0.1748;stroke-miterlimit:10;}
	.st28{fill:#E6B566;stroke:#FFFFFF;stroke-width:0.1659;stroke-miterlimit:10;}
	.st29{fill:#FFFFFF;stroke:#FFFFFF;stroke-width:0.1057;stroke-miterlimit:10;}
	.st30{fill:#E6B566;stroke:#FFFFFF;stroke-width:0.1061;stroke-miterlimit:10;}
	.st31{fill:#FFFFFF;stroke:#FFFFFF;stroke-width:0.1749;stroke-miterlimit:10;}
	.st32{fill:#E6B566;stroke:#FFFFFF;stroke-width:0.1756;stroke-miterlimit:10;}
	.st33{fill:#CECECD;}
	.st34{fill:none;stroke:#818282;stroke-width:0.4612;stroke-miterlimit:10;}
	.st35{fill:#CECECD;stroke:#CECECD;stroke-width:3;stroke-miterlimit:10;}
	.st36{fill:#E30613;stroke:#CECECD;stroke-miterlimit:10;}
	.st37{fill:#9C9B9B;}
	.st38{fill:#FFFFFF;stroke:#FFFFFF;stroke-width:0.1196;stroke-miterlimit:10;}
	.st39{fill:#E6B566;stroke:#FFFFFF;stroke-width:0.1201;stroke-miterlimit:10;}
	.st40{fill:#4D4D4D;}
	.st41{fill:none;stroke:#E8E7E7;stroke-width:0.8873;stroke-miterlimit:10;}
	.st42{fill:#115EA8;}
	.st43{fill:#020203;}
	.st44{fill:#303031;}
	.st45{fill:#E20D18;stroke:#FFFFFF;stroke-width:0.5;stroke-miterlimit:10;}
	.st46{fill:#999999;}
</style>
<g id="BACKGROUND" class="st0">
</g>
<g id="OBJECTS">
	<path class="st17" d="M63.62,67.72c-0.15,0-0.25-0.06-0.37-0.14c-0.52-0.25-1.39-0.89-3.05-2.21c-1.47-1.17-3.56-2.93-5.16-4.71
		c-3.11-3.43-3.47-7.18-3.48-7.34c0-0.03,0-0.05,0-0.08v-9.06c0-0.43,0.32-0.8,0.75-0.85c0.03,0,3.18-0.42,5.56-1.44
		c3.23-1.37,5.07-4.16,5.09-4.18c0.16-0.24,0.43-0.39,0.72-0.39c0,0,0,0,0,0c0.29,0,0.56,0.15,0.72,0.39
		c0.02,0.03,1.86,2.81,5.09,4.18h0c2.39,1.02,5.53,1.44,5.56,1.44c0.43,0.06,0.75,0.42,0.75,0.85v9.06c0,0.03,0,0.05,0,0.08
		c-0.01,0.16-0.38,3.91-3.48,7.34c-1.61,1.77-3.7,3.54-5.16,4.71c-1.66,1.32-2.53,1.96-3.05,2.21c-0.13,0.09-0.24,0.15-0.42,0.14
		C63.66,67.72,63.64,67.72,63.62,67.72z M64.21,66.15C64.21,66.15,64.21,66.15,64.21,66.15C64.21,66.15,64.21,66.15,64.21,66.15z
		 M63.96,66.01c0.09,0.03,0.18,0.08,0.25,0.14C64.13,66.08,64.04,66.04,63.96,66.01C63.96,66.01,63.96,66.01,63.96,66.01z
		 M63.14,66.15C63.14,66.15,63.14,66.15,63.14,66.15C63.14,66.15,63.14,66.15,63.14,66.15z M63.39,66.01
		c-0.09,0.03-0.17,0.07-0.25,0.14C63.22,66.09,63.3,66.04,63.39,66.01C63.39,66.01,63.39,66.01,63.39,66.01z M53.27,53.21
		c0.04,0.34,0.48,3.47,3.04,6.3c2.39,2.64,6.17,5.5,7.37,6.31c1.2-0.81,4.97-3.68,7.37-6.31c2.56-2.83,3-5.96,3.04-6.3v-8.28
		c-1.14-0.19-3.38-0.64-5.27-1.45c-2.49-1.06-4.23-2.8-5.14-3.88c-0.91,1.08-2.65,2.82-5.14,3.88c-1.89,0.8-4.13,1.25-5.27,1.45
		V53.21z"/>
	<path class="st4" d="M63.67,45.19c-4.16,0-7.53,3.37-7.53,7.53s3.37,7.53,7.53,7.53s7.53-3.37,7.53-7.53S67.83,45.19,63.67,45.19z
		 M67.57,51.57l-3.89,4.09c-0.21,0.22-0.5,0.35-0.8,0.35c-0.01,0-0.02,0-0.03,0c-0.29,0-0.58-0.11-0.79-0.32l-2.25-2.16
		c-0.46-0.44-0.47-1.16-0.03-1.62c0.44-0.46,1.16-0.47,1.62-0.03l1.42,1.36l3.1-3.26c0.43-0.46,1.16-0.48,1.62-0.04
		C67.99,50.39,68.01,51.11,67.57,51.57z"/>
</g>
<g id="DESIGNED_BY_FREEPIK">
</g>
<g id="Capa_4">
</g>
</svg>
