<svg width="25" height="24" viewBox="0 0 25 24" fill="none" xmlns="http://www.w3.org/2000/svg">
<path d="M24.46 10.04C25.18 9.34 24.78 8.11 23.79 7.97L17.49 7.05C17.09 6.99 16.75 6.74 16.57 6.38L13.75 0.67C13.53 0.23 13.1 0 12.66 0C12.23 0 11.79 0.23 11.57 0.68L8.75999 6.39C8.57999 6.74 8.23999 6.99 7.83999 7.05L1.53999 7.97C0.539994 8.12 0.139994 9.34 0.869994 10.04L5.42999 14.48C5.71999 14.76 5.84999 15.16 5.77999 15.56L4.69999 21.83C4.56999 22.62 5.18999 23.25 5.89999 23.25C6.08999 23.25 6.27999 23.21 6.46999 23.11L12.1 20.15C12.28 20.06 12.47 20.01 12.67 20.01C12.86 20.01 13.06 20.06 13.24 20.15L18.87 23.11C19.06 23.21 19.25 23.25 19.44 23.25C20.15 23.25 20.77 22.61 20.64 21.83L19.56 15.56C19.49 15.17 19.62 14.76 19.91 14.48L24.46 10.04ZM18.51 13.05C17.75 13.79 17.41 14.85 17.59 15.9L18.4 20.61L14.17 18.39C13.71 18.15 13.19 18.02 12.67 18.02C12.15 18.02 11.63 18.15 11.17 18.39L6.93999 20.6L7.74999 15.89C7.92999 14.85 7.57999 13.78 6.82999 13.04L3.39999 9.72L8.11999 9.03C9.16999 8.88 10.07 8.22 10.54 7.27L12.65 2.99L14.76 7.27C15.23 8.22 16.14 8.88 17.18 9.03L21.91 9.72L18.51 13.05Z" fill="black"/>
</svg>
