<svg width="256" height="275" viewBox="0 0 256 275" fill="none" xmlns="http://www.w3.org/2000/svg">
<g clip-path="url(#clip0_34_41)">
<path d="M52.5101 192.092C60.6401 204.712 70.2501 214.312 82.9301 222.482C84.1801 220.862 85.3201 218.973 86.8501 217.493C92.2901 212.243 98.7601 210.902 106.01 212.812C112.13 214.422 118.25 216.032 124.42 217.452C133.16 219.462 139.14 225.363 139.73 234.213C140.27 242.333 140.29 250.573 139.59 258.673C138.72 268.633 128.88 275.903 119.02 274.733C96.9001 272.113 76.5101 264.772 58.1701 252.082C27.8201 231.072 9.25012 202.263 2.00012 166.132C1.24012 162.362 0.650122 158.522 0.510122 154.692C0.100122 143.962 7.62012 135.602 18.3201 135.052C25.2201 134.702 32.1701 134.712 39.0801 135.002C49.3701 135.442 56.1301 141.992 57.8901 152.232C58.7301 157.122 59.8201 162.022 61.4101 166.722C64.3701 175.482 62.9301 182.992 56.1201 189.332C55.0501 190.332 53.7801 191.132 52.5101 192.092ZM127.34 246.062C127.34 242.882 127.4 239.702 127.32 236.532C127.23 232.862 125.33 230.742 121.76 229.882C115.39 228.342 109 226.842 102.69 225.062C99.6901 224.212 97.3801 224.842 95.2801 226.952C92.8801 229.362 90.5101 231.812 88.0501 234.162C85.3901 236.692 82.5301 237.002 79.3601 235.152C62.7501 225.452 49.5701 212.303 39.8401 195.713C37.8401 192.303 38.1501 189.592 40.8701 186.772C43.2301 184.322 45.7101 181.982 48.0801 179.542C49.8301 177.742 50.7401 175.642 50.0701 173.052C48.3501 166.372 46.6701 159.682 44.9701 153.002C44.0901 149.542 42.0201 147.652 38.5301 147.592C32.1801 147.482 25.8201 147.462 19.4701 147.582C15.2901 147.662 12.5501 150.982 13.0601 155.092C14.5501 167.072 17.4501 178.682 22.3901 189.722C36.3701 220.952 59.3701 242.733 91.2401 255.132C100.14 258.602 109.39 260.852 118.89 261.882C124.84 262.522 127.33 260.153 127.35 254.243C127.35 251.503 127.34 248.782 127.34 246.062Z" fill="black"/>
<path d="M100.8 122.903C90.8102 125.693 81.5802 129.643 72.9702 134.783C75.7402 139.533 78.5702 145.953 80.4102 150.443C80.5702 150.503 80.7302 150.532 80.8902 150.592C81.7102 150.892 82.3302 150.823 83.0702 150.393C97.5002 141.933 113.1 137.763 129.82 137.753C136 137.753 142.19 137.633 148.36 137.863C171.61 138.733 191.75 147.223 208.61 163.213C223.08 176.933 232.06 193.752 235.63 213.372C236.5 218.172 236.83 223.093 237.04 227.973C237.28 233.363 237.12 238.772 237.11 244.182C237.11 247.682 235.28 249.503 231.75 249.503C205.74 249.503 179.73 249.503 153.72 249.503C153.79 253.413 153.85 259.543 153.63 263.623C153.54 265.293 152.97 266.793 152.17 268.113C160.32 268.113 168.47 268.113 176.62 268.113C195.16 268.113 213.7 268.163 232.24 268.093C240.75 268.063 247.4 264.373 252.09 257.273C254.44 253.713 255.7 249.733 255.67 245.473C255.62 236.913 255.82 228.333 255.17 219.812C253.76 201.132 247.62 183.952 237.13 168.432C221.94 145.942 201.26 130.903 175.18 123.303C174.92 123.223 174.67 123.123 174.22 122.963C193.68 108.933 204.22 90.3125 204.17 66.3125C204.13 48.0225 197.27 32.3725 184.36 19.5125C158.16 -6.5975 116.14 -6.4375 89.9502 19.7825C80.4102 29.3325 74.2902 40.7825 71.6902 54.0525C69.0802 67.3625 70.3702 80.3125 75.6502 92.8125C80.9602 105.222 89.3602 115.103 100.8 122.903ZM89.0702 67.7125C88.6202 40.5525 110.89 18.5725 137.38 18.6325C164.05 18.6925 185.7 40.3425 185.68 67.0125C185.66 93.5125 163.93 115.272 137.52 115.272C111.04 115.282 89.5102 94.1025 89.0702 67.7125Z" fill="black"/>
</g>
<defs>
<clipPath id="clip0_34_41">
<rect width="255.2" height="274.86" fill="white"/>
</clipPath>
</defs>
</svg>
