<svg width="81" height="80" viewBox="0 0 81 80" fill="none" xmlns="http://www.w3.org/2000/svg">
<mask id="mask0_17_2729" style="mask-type:alpha" maskUnits="userSpaceOnUse" x="0" y="0" width="81" height="80">
<rect x="0.5" width="80" height="80" fill="#D9D9D9"/>
</mask>
<g mask="url(#mask0_17_2729)">
<path d="M29.1667 75L22.8334 64.3333L10.8334 61.6667L12 49.3333L3.83337 40L12 30.6667L10.8334 18.3333L22.8334 15.6667L29.1667 5L40.5 9.83333L51.8334 5L58.1667 15.6667L70.1667 18.3333L69 30.6667L77.1667 40L69 49.3333L70.1667 61.6667L58.1667 64.3333L51.8334 75L40.5 70.1667L29.1667 75ZM37 51.8333L55.8334 33L51.1667 28.1667L37 42.3333L29.8334 35.3333L25.1667 40L37 51.8333Z" fill="#444444"/>
</g>
</svg>
