<?xml version="1.0" encoding="utf-8"?>
<!-- Generator: Adobe Illustrator 26.2.1, SVG Export Plug-In . SVG Version: 6.00 Build 0)  -->
<svg version="1.1" id="Capa_1" xmlns="http://www.w3.org/2000/svg" xmlns:xlink="http://www.w3.org/1999/xlink" x="0px" y="0px"
	 viewBox="0 0 461.6 336.22" style="enable-background:new 0 0 461.6 336.22;" xml:space="preserve">
<g>
	<path d="M238.65,336.21c-59.26,0-118.52,0.03-177.79-0.02c-13.81-0.01-26.88-2.13-38.18-9.47C7.12,316.62-0.01,303.3,0,287.05
		c0.04-75.97,0.06-151.94,0.06-227.91c0-11.04-0.5-22.14,5.61-32.41c9.46-15.88,24.92-24.8,46-26.32
		c10.02-0.72,20.16-0.27,30.25-0.27c98.35-0.02,196.7-0.02,295.05-0.01c3.14,0,6.37-0.09,9.4,0.47c6.47,1.2,10.93,6.36,10.53,11.61
		c-0.34,4.5-5.79,9.14-11.8,9.76c-2.8,0.29-5.66,0.2-8.5,0.2c-104.02,0.03-208.05,0.02-312.07,0.15c-5.59,0.01-11.35,0.6-16.73,1.82
		C34.07,27.27,26.79,36.29,27.46,48.4c0.61,10.91,9.94,19.75,23.15,21.7c3.39,0.5,6.88,0.76,10.33,0.76
		c115.69,0.02,231.37-0.01,347.06-0.01c5.36,0,10.73-0.06,16.07,0.21c11.27,0.57,15.77,4.48,15.83,13.98
		c0.13,19.45,0.01,38.91,0.07,58.36c0.03,9.1,0.11,9.1,10.64,11.18c7.47,1.48,10.66,5.01,10.78,12.91
		c0.21,13.67,0.11,27.34,0.12,41.01c0.01,9.99,0.22,19.98-0.05,29.97c-0.26,9.64-3.08,12.6-14.43,14.29
		c-7.12,1.06-7.05,5.06-7.06,9.36c-0.05,18.93,0.01,37.85-0.1,56.78c-0.08,13.89-4.02,17.25-20.6,17.27
		c-60.21,0.06-120.41,0.03-180.62,0.03C238.65,336.2,238.65,336.2,238.65,336.21z M30.14,88.42c-0.91,0.36-1.82,0.71-2.74,1.07
		c0,5.91,0,11.83,0,17.74c0,60.2,0.12,120.39-0.13,180.59c-0.04,9.33,4.32,16.02,12.9,21.52c6.31,4.05,13.55,3.96,20.73,3.98
		c41.92,0.1,83.85,0.06,125.77,0.06c71.55,0.01,143.11,0.02,214.66,0c11.18,0,11.95-0.62,12-9.71c0.07-13.14,0.05-26.29,0-39.43
		c-0.04-10.55-0.93-11.32-13.29-11.37c-17.34-0.06-34.67,0-52.01-0.08c-36.46-0.18-67.73-33.09-51.61-67.39
		c9.55-20.3,28.46-30.8,54.86-31.11c17.02-0.2,34.04,0.04,51.06-0.11c8.74-0.08,10.83-1.55,10.92-7.82
		c0.21-14.98,0.25-29.97,0.06-44.95c-0.08-6.65-1.58-7.58-9.65-7.58c-101.5,0.01-203,0.2-304.5-0.08
		C76.08,93.68,52.51,96.91,30.14,88.42z M386.94,230.61c0,0.05,0,0.1,0,0.15c12.9,0,25.81-0.12,38.71,0.05
		c6.01,0.08,8.52-1.92,8.45-6.97c-0.18-13.12,0.08-26.25-0.08-39.37c-0.09-7.56-0.77-8.08-9.78-8.11
		c-24.23-0.07-48.47-0.18-72.7,0.02c-18.14,0.15-32.31,12.11-32.61,27.02c-0.3,14.73,13.73,26.75,32.13,27.15
		C363.01,230.82,374.98,230.61,386.94,230.61z"/>
	<path d="M231.16,35.21c55.76,0.01,111.52-0.04,167.27,0.09c4.26,0.01,9.5,0.17,12.52,2.15c3.51,2.29,6.64,6.53,7.08,10.16
		c0.56,4.62-3.47,8.38-9.39,9.54c-3.33,0.65-6.83,0.95-10.26,0.95C286.25,58.12,174.1,58.1,61.96,58.08c-1.89,0-3.8,0.04-5.66-0.15
		c-8.5-0.85-13.09-4.82-13.01-11.14c0.07-6.02,5.19-10.76,13.06-11.33c6.26-0.45,12.59-0.24,18.89-0.24
		C127.21,35.19,179.19,35.2,231.16,35.21z"/>
	<path d="M360.28,192.3c2.28,0.19,5.78,0.2,9.11,0.82c6,1.11,10.27,6.05,9.91,10.94c-0.36,4.95-4.91,9.46-11.29,10.06
		c-5.89,0.55-11.93,0.52-17.84,0.14c-6.64-0.42-11.49-5.16-11.63-10.52c-0.14-5.2,4.72-10.11,11.18-10.94
		C352.79,192.39,355.97,192.48,360.28,192.3z"/>
</g>
</svg>
